
<svg width="17px" height="20px" viewBox="0 0 17 20" version="1.1" xmlns="http://www.w3.org/2000/svg" xmlns:xlink="http://www.w3.org/1999/xlink">
    <!-- Generator: Sketch 51.3 (57544) - http://www.bohemiancoding.com/sketch -->
    <desc>Created with Sketch.</desc>
    <defs></defs>
    <g id="Page-1" stroke="none" stroke-width="1" fill="none" fill-rule="evenodd">
        <g id="Google-Chrome---Modal,-Returned-Results" transform="translate(-812.000000, -360.000000)" fill="#9013FE">
            <g id="ui-copy" transform="translate(812.000000, 360.000000)">
                <g id="Shape">
                    <path d="M13.3186813,8.33166833 C13.3186813,10.1918082 13.3166833,12.0539461 13.3186813,13.9140859 C13.3206793,15.2467532 12.4855145,16.3056943 11.1848152,16.5954046 C11.010989,16.6333666 10.8271728,16.6573427 10.6493506,16.6573427 C8.003996,16.6613387 5.35864136,16.6613387 2.71328671,16.6573427 C1.40659341,16.6553447 0.343656344,15.7962038 0.0759240759,14.5214785 C0.033966034,14.3256743 0.015984016,14.1218781 0.015984016,13.9220779 C0.011988012,10.9090909 0.015984016,7.89410589 0.00999000999,4.88111888 C0.00799200799,4.3996004 0.177822178,3.98401598 0.43956044,3.6023976 C1.15684316,2.55744256 2.08991009,1.73026973 3.12287712,1.01498501 C3.68831169,0.623376623 4.27172827,0.25974026 4.94905095,0.0879120879 C5.10889111,0.047952048 5.27672328,0.023976024 5.44055944,0.023976024 C7.17882118,0.01998002 8.91508492,0.017982018 10.6513487,0.021978022 C12.1378621,0.025974026 13.3126873,1.21278721 13.3166833,2.70529471 C13.3206793,4.58141858 13.3186813,6.45754246 13.3186813,8.33166833 Z M1.32667333,4.65734266 C1.32067932,4.73526474 1.31468531,4.78121878 1.31468531,4.82917083 C1.31468531,7.91408591 1.31268731,10.997003 1.31668332,14.0819181 C1.31668332,14.7672328 1.93006993,15.3606394 2.62337662,15.3606394 C5.31068931,15.3626374 8,15.3606394 10.6873127,15.3606394 C10.7772228,15.3606394 10.8691309,15.3566434 10.955045,15.3346653 C11.6043956,15.1788212 12.015984,14.6513487 12.015984,13.974026 L12.015984,2.65934066 C12.015984,1.91808192 11.4245754,1.32467532 10.6813187,1.32467532 C8.96503497,1.32267732 7.25074925,1.32467532 5.53446553,1.32467532 C5.46853147,1.32467532 5.4005994,1.33266733 5.31468531,1.33666334 C5.31468531,1.44255744 5.31668332,1.53246753 5.31468531,1.62037962 C5.3026973,2.11988012 5.30869131,2.61938062 5.27072927,3.11688312 C5.21478521,3.86213786 4.77122877,4.38761239 4.06593407,4.55944056 C3.81218781,4.62137862 3.54645355,4.64735265 3.28471528,4.65334665 C2.63936064,4.66533467 1.99400599,4.65734266 1.32667333,4.65734266 Z M3.35664336,17.3606394 C3.76423576,17.3606394 4.14385614,17.3566434 4.52547453,17.3666334 C4.56743257,17.3686314 4.64135864,17.4405594 4.64535465,17.4865135 C4.71528472,18.1758242 5.35064935,18.7112887 6.11188811,18.7032967 C8.72927073,18.6773227 11.3486513,18.6953047 13.968032,18.6953047 C14.6433566,18.6953047 15.1728272,18.2817183 15.3266733,17.6323676 C15.3466533,17.5464535 15.3506494,17.4545455 15.3506494,17.3646354 C15.3526474,13.5644356 15.3526474,9.76623377 15.3506494,5.96603397 C15.3506494,5.32267732 14.8571429,4.76123876 14.1958042,4.66933067 C14.045954,4.64935065 14.013986,4.5974026 14.015984,4.46353646 C14.021978,4.1038961 14.017982,3.74425574 14.017982,3.37062937 C14.5154845,3.37462537 14.957043,3.49450549 15.3586414,3.74225774 C16.1958042,4.26373626 16.6433566,5.03096903 16.6473526,6.00999001 C16.6613387,9.78821179 16.6673327,13.5664336 16.6493506,17.3446553 C16.6413586,18.9170829 15.4185814,19.8961039 14.3036963,19.954046 C13.3826174,20.001998 12.4575425,19.992008 11.5364635,19.994006 C9.7022977,19.998002 7.86813187,20.005994 6.03596404,19.99001 C5.05894106,19.982018 4.28571429,19.5604396 3.75224775,18.7272727 C3.49050949,18.3236763 3.37062937,17.8741259 3.35664336,17.3606394 Z M6.64335664,6.99100899 C5.47052947,6.99100899 4.2957043,6.98501499 3.12287712,6.995005 C2.83716284,6.997003 2.70729271,6.8971029 2.68531469,6.4995005 C2.66733267,6.17382617 2.81718282,6.02397602 3.11688312,6.02397602 C5.46453546,6.02397602 7.81018981,6.02597403 10.1578422,6.02397602 C10.3396603,6.02397602 10.5074925,6.02997003 10.5874126,6.23376623 C10.6753247,6.46153846 10.6853147,6.69330669 10.5214785,6.88111888 C10.4575425,6.95504496 10.3136863,6.98701299 10.2057942,6.98701299 C9.01898102,6.995005 7.83216783,6.99100899 6.64335664,6.99100899 Z M6.66133866,8.99100899 L3.12287712,8.99100899 C2.81918082,8.99100899 2.67532468,8.84915085 2.68731269,8.51748252 C2.7012987,8.17182817 2.80919081,8.01998002 3.12487512,8.01998002 C5.47652348,8.02797203 7.83016983,8.02397602 10.1818182,8.02397602 C10.4975025,8.02397602 10.6513487,8.17982018 10.6493506,8.4995005 C10.6493506,8.83716284 10.5034965,8.99300699 10.1778222,8.99300699 C9.00699301,8.99300699 7.83416583,8.99100899 6.66133866,8.99100899 Z M6.64535465,10.025974 L10.1858142,10.025974 C10.5034965,10.025974 10.6613387,10.1718282 10.6453546,10.5014985 C10.6273726,10.8471528 10.5194805,10.997003 10.1778222,10.995005 C7.81818182,10.989011 5.45654346,10.991009 3.0969031,10.993007 C2.83716284,10.993007 2.75724276,10.9190809 2.6973027,10.6173826 C2.62137862,10.2477522 2.7992008,10.023976 3.16883117,10.023976 C4.32567433,10.023976 5.48451548,10.023976 6.64535465,10.025974 Z M6.63536464,12.993007 C5.47652348,12.993007 4.31568432,12.983017 3.15684316,12.999001 C2.80519481,13.002997 2.68931069,12.8631369 2.68931069,12.4735265 C2.68931069,12.1278721 2.82117882,12.027972 3.16883117,12.027972 L10.2077922,12.027972 C10.4975025,12.027972 10.6453546,12.1878122 10.6513487,12.5074925 C10.6573427,12.8171828 10.5014985,12.997003 10.2177822,12.997003 C9.02297702,12.995005 7.82817183,12.995005 6.63536464,12.993007 Z" fill-rule="nonzero"></path>
                </g>
            </g>
        </g>
    </g>
</svg>