
<svg width="17px" height="15px" viewBox="0 0 17 15" version="1.1" xmlns="http://www.w3.org/2000/svg" xmlns:xlink="http://www.w3.org/1999/xlink">
    <!-- Generator: Sketch 51.3 (57544) - http://www.bohemiancoding.com/sketch -->
    <desc>Created with Sketch.</desc>
    <defs></defs>
    <g id="Page-1" stroke="none" stroke-width="1" fill="none" fill-rule="evenodd">
        <g id="Google-Chrome---Modal,-Returned-Results" transform="translate(-812.000000, -451.000000)" fill="#9013FE" fill-rule="nonzero">
            <g id="download-(1)" transform="translate(812.000000, 451.000000)">
                <path d="M7.69390244,11.5134146 C7.8695122,11.6853659 8.15487805,11.6853659 8.33231707,11.5134146 L13.7140244,6.28536585 C13.8896341,6.11341463 13.8896341,5.83719512 13.7140244,5.6652439 L12.6439024,4.62621951 C12.4682927,4.45426829 12.1829268,4.45426829 12.0054878,4.62621951 L9.45914634,7.09939024 L9.45914634,0.43902439 C9.45914634,0.197560976 9.25792683,0 9.00731707,0 L7.20365854,0 C6.95487805,0 6.75182927,0.195731707 6.75182927,0.43902439 L6.75182927,7.28231707 L4.01890244,4.62621951 C3.84329268,4.45426829 3.55792683,4.45426829 3.3804878,4.62621951 L2.31036585,5.6652439 C2.1347561,5.83719512 2.1347561,6.11341463 2.31036585,6.28536585 L7.69390244,11.5134146 Z M13.7926829,8.99268293 L13.7926829,12.770122 L2.22987805,12.770122 L2.22987805,8.99268293 L0.00914634146,8.99268293 L0.00914634146,13.8823171 C0.00914634146,14.4969512 0.504878049,14.9926829 1.12134146,14.9926829 L14.9012195,14.9926829 C15.5158537,14.9926829 16.0134146,14.4969512 16.0134146,13.8823171 L16.0134146,8.99268293 L13.7926829,8.99268293 Z" id="Shape"></path>
            </g>
        </g>
    </g>
</svg>