
<svg width="23px" height="15px" viewBox="0 0 23 15" version="1.1" xmlns="http://www.w3.org/2000/svg" xmlns:xlink="http://www.w3.org/1999/xlink">
    <!-- Generator: Sketch 51.3 (57544) - http://www.bohemiancoding.com/sketch -->
    <desc>Created with Sketch.</desc>
    <defs></defs>
    <g id="Page-1" stroke="none" stroke-width="1" fill="none" fill-rule="evenodd">
        <g id="Google-Chrome---Modal,-Login-Validation-Copy" transform="translate(-804.000000, -446.000000)" fill="#680dfa" fill-rule="nonzero">
            <g id="eye-alt" transform="translate(804.000000, 446.000000)">
                <path d="M10.6414671,0.0112275449 L11.8495509,0.0112275449 C11.9214072,0.0269461078 11.9932635,0.0516467066 12.0673653,0.0561377246 C12.9408683,0.123502994 13.7874251,0.321107784 14.6047904,0.622005988 C17.5037425,1.69535928 19.870509,3.51197605 21.8218563,5.88323353 C23.7732036,8.25449102 22.6886228,8.05688623 21.8083832,9.14595808 C20.5980539,10.6459581 19.1609281,11.8922156 17.5419162,12.9296407 C16.2080838,13.7829341 14.7866766,14.4408683 13.2305389,14.7732036 C12.7747006,14.8697605 12.3098802,14.9258982 11.8495509,15 L10.6414671,15 C10.5696108,14.9842814 10.495509,14.9595808 10.4214072,14.9550898 C9.66916168,14.8922156 8.93263473,14.7372754 8.21856287,14.4947605 C5.13997006,13.4505988 2.66766467,11.5531437 0.61751497,9.06961078 C0.28742515,8.66991018 0.0741017964,8.20508982 0.0291916168,7.67964072 C-0.0314371257,6.92739521 0.296407186,6.31661677 0.756736527,5.75973054 C1.98952096,4.27095808 3.43787425,3.02245509 5.0748503,1.99625749 C6.43787425,1.14071856 7.88847305,0.491766467 9.47829341,0.188622754 C9.86452096,0.114520958 10.252994,0.0696107784 10.6414671,0.0112275449 Z M6.56586826,7.50673653 C6.56586826,10.0733533 8.66541916,12.1796407 11.2320359,12.1841317 C13.8053892,12.1908683 15.9229042,10.0755988 15.9229042,7.50224551 C15.9229042,4.93562874 13.8188623,2.83158683 11.2522455,2.82709581 C8.66991018,2.82260479 6.56586826,4.9244012 6.56586826,7.50673653 Z M12.1257485,4.85703593 C11.1938623,5.63622754 10.989521,6.46931138 11.5374251,7.26197605 C12.0898204,8.06137725 12.9206587,8.15344311 14.0321856,7.54041916 C14.1467066,8.49700599 13.3428144,9.69161677 12.2964072,10.1137725 C11.1152695,10.5898204 9.75,10.2058383 8.99550898,9.18862275 C8.22754491,8.15344311 8.24550898,6.75 9.04041916,5.76197605 C9.79491018,4.82335329 11.1489521,4.4258982 12.1257485,4.85703593 Z" id="Shape"></path>
            </g>
        </g>
    </g>
</svg>