
<svg width="15px" height="10px" viewBox="0 0 15 10" version="1.1" xmlns="http://www.w3.org/2000/svg" xmlns:xlink="http://www.w3.org/1999/xlink">
    <!-- Generator: Sketch 51.3 (57544) - http://www.bohemiancoding.com/sketch -->
    <desc>Created with Sketch.</desc>
    <defs>
        <linearGradient x1="-23.4615832%" y1="-5.70356324%" x2="41.8203119%" y2="78.3761584%" id="linearGradient-1">
            <stop stop-color="#0F6AFF" offset="0%"></stop>
            <stop stop-color="#9013FE" offset="100%"></stop>
        </linearGradient>
    </defs>
    <g id="Page-1" stroke="none" stroke-width="1" fill="none" fill-rule="evenodd">
        <g id="Google-Chrome---Header-Icon" transform="translate(-828.000000, -224.000000)" fill="url(#linearGradient-1)">
            <g id="Group" transform="translate(112.000000, 180.000000)">
                <g id="Browser">
                    <g id="elliot-logo-purple" transform="translate(716.000000, 44.000000)">
                        <path d="M0.713194961,8.0366889 C0.696041377,8.02986659 0.685749226,8.02304427 0.675457076,8.01963311 C0.675457076,8.00257732 0.672026359,7.98552153 0.675457076,7.9718769 C0.685749226,7.9138872 0.699472093,7.85589751 0.709764244,7.80131898 C0.713194961,7.78767435 0.713194961,7.77402971 0.713194961,7.76038508 C0.716625677,7.72286234 0.723487111,7.6853396 0.723487111,7.6444057 C0.723487111,7.61370528 0.723487111,7.57959369 0.713194961,7.54889327 C0.696041377,7.50454821 0.69261066,7.46020315 0.69261066,7.4158581 C0.69261066,7.3749242 0.696041377,7.33740146 0.668595642,7.29987871 C0.661734208,7.2930564 0.665164925,7.26917829 0.672026359,7.25553366 C0.70290281,7.19072165 0.69261066,7.12249848 0.70290281,7.05768648 C0.706333527,7.04404184 0.696041377,7.03039721 0.696041377,7.01675258 C0.696041377,6.99287447 0.699472093,6.96899636 0.706333527,6.94852941 C0.709764244,6.92806246 0.723487111,6.90759551 0.706333527,6.88712856 C0.70290281,6.88030625 0.706333527,6.8598393 0.713194961,6.84960582 C0.761224996,6.7779715 0.812685748,6.70974833 0.8641465,6.64152517 C0.908745819,6.58012432 0.946483704,6.51531231 0.946483704,6.43685567 C0.946483704,6.41979988 0.94991442,6.39933293 0.956775854,6.38227714 C0.980790872,6.32428745 1.00823661,6.26629776 1.03225162,6.20489691 C1.03568234,6.19466343 1.04254377,6.18442996 1.04597449,6.17078532 C1.06312808,6.099151 1.07685094,6.03092784 1.09400453,5.95929351 C1.10086596,5.92859309 1.11458883,5.89789266 1.12488098,5.86719224 C1.13860385,5.82625834 1.148896,5.7887356 1.14203456,5.74439054 C1.13860385,5.72733475 1.14203456,5.7068678 1.148896,5.68981201 C1.16261886,5.62158884 1.17977245,5.55336568 1.19692603,5.48514251 C1.20035675,5.46467556 1.20378746,5.45103093 1.19349531,5.43397514 C1.18320316,5.41350819 1.17977245,5.38963008 1.17634173,5.36575197 C1.15918815,5.31117344 1.14203456,5.25659491 1.12831169,5.20201637 C1.10772739,5.12014857 1.08714309,5.03828078 1.07342023,4.95641298 C1.05969736,4.87113402 1.05283592,4.78585506 1.03911306,4.70057611 C1.02882091,4.64258642 1.00823661,4.58800788 0.994513739,4.53342935 C0.991083022,4.51978472 0.991083022,4.50614008 0.994513739,4.49590661 C1.00480589,4.44473924 1.00137517,4.39698302 0.963637288,4.35604912 C0.953345137,4.34581565 0.956775854,4.32193754 0.94991442,4.30147059 C0.912176536,4.2844148 0.908745819,4.24006974 0.898453668,4.19913584 C0.891592235,4.16502426 0.877869367,4.13432383 0.860715783,4.10362341 C0.840131483,4.06951183 0.833270049,4.02857793 0.826408615,3.98764403 C0.819547182,3.94671013 0.812685748,3.90577623 0.792101447,3.86825349 C0.76808643,3.82731959 0.761224996,3.77956337 0.757794279,3.73180716 C0.754363562,3.67722862 0.744071412,3.62606125 0.737209978,3.57148272 C0.737209978,3.56124924 0.730348545,3.55442693 0.723487111,3.54419345 C0.699472093,3.51690418 0.69261066,3.4827926 0.699472093,3.44868102 C0.706333527,3.41798059 0.699472093,3.39410249 0.682318509,3.37363554 C0.665164925,3.35316859 0.661734208,3.32929048 0.665164925,3.30200121 C0.668595642,3.28494542 0.668595642,3.26447847 0.665164925,3.24742268 C0.661734208,3.18943299 0.654872775,3.1314433 0.651442058,3.07004245 C0.630857757,3.08027592 0.62742704,3.10074287 0.623996324,3.11779867 C0.60684274,3.22695573 0.572535571,3.32929048 0.579397005,3.4418587 C0.579397005,3.44526986 0.575966288,3.45209218 0.579397005,3.45550334 C0.599981306,3.57830503 0.575966288,3.70451789 0.562243421,3.82390843 C0.548520554,3.94671013 0.555381987,4.06610067 0.548520554,4.18549121 C0.548520554,4.20936931 0.545089837,4.23324742 0.545089837,4.25712553 C0.545089837,4.36287144 0.545089837,4.46520619 0.545089837,4.57095209 C0.545089837,4.62894178 0.54165912,4.68352032 0.54165912,4.74151001 C0.54165912,4.77221043 0.54165912,4.80632201 0.545089837,4.83702244 C0.558812704,4.93935719 0.565674138,5.04169193 0.562243421,5.14402668 C0.562243421,5.15426016 0.558812704,5.16790479 0.555381987,5.17813827 C0.548520554,5.19860522 0.538228403,5.21566101 0.555381987,5.2327168 C0.558812704,5.23612796 0.558812704,5.24295027 0.558812704,5.24636143 C0.54165912,5.3145846 0.569104855,5.38280776 0.569104855,5.45103093 C0.569104855,5.55677683 0.565674138,5.66252274 0.565674138,5.76826865 C0.565674138,5.82625834 0.569104855,5.88424803 0.579397005,5.93882656 C0.596550589,6.03092784 0.589689155,6.12302911 0.593119872,6.21513038 C0.593119872,6.25606428 0.599981306,6.29699818 0.599981306,6.34134324 C0.599981306,6.39592177 0.596550589,6.44708914 0.593119872,6.50166768 C0.589689155,6.53577926 0.589689155,6.573302 0.60684274,6.60400243 C0.613704173,6.61764706 0.613704173,6.63470285 0.613704173,6.64834748 C0.613704173,6.74044876 0.61713489,6.83255003 0.61713489,6.9246513 C0.61713489,7.07474227 0.61713489,7.22142207 0.575966288,7.36810188 C0.569104855,7.39197999 0.572535571,7.4158581 0.569104855,7.4397362 C0.555381987,7.53865979 0.524505536,7.63076107 0.490198368,7.7262735 C0.483336934,7.73991813 0.476475501,7.75356277 0.476475501,7.77061856 C0.46618335,7.85589751 0.428445465,7.93435415 0.404430448,8.01622195 C0.390707581,8.05715585 0.383846147,8.10150091 0.383846147,8.14584597 C0.383846147,8.19701334 0.376984713,8.24818072 0.376984713,8.30275925 C0.376984713,8.31981504 0.38041543,8.33687083 0.383846147,8.35392662 C0.387276864,8.38462705 0.373553996,8.39486052 0.342677545,8.38121589 C0.332385395,8.37780473 0.322093244,8.37098241 0.311801094,8.37098241 C0.267201775,8.37780473 0.246617475,8.35051546 0.22946389,8.31981504 C0.212310306,8.28570346 0.195156722,8.25500303 0.178003138,8.22089145 C0.153988121,8.16631292 0.147126687,8.11173438 0.153988121,8.05374469 C0.157418837,8.02986659 0.153988121,8.00598848 0.153988121,7.97869921 C0.150557404,7.91729836 0.150557404,7.85930867 0.14369597,7.79790782 C0.14369597,7.78085203 0.136834537,7.75697392 0.123111669,7.74332929 C0.0613587668,7.66828381 0.0339130323,7.58300485 0.0167594483,7.49090358 C-0.0106862862,7.35445725 0.00303658105,7.21801092 0.00646729786,7.08156458 C0.00646729786,6.99628563 0.0304823155,6.91100667 0.0544973332,6.82913887 C0.075081634,6.76432686 0.0888045013,6.6961037 0.112819519,6.63129169 C0.140265253,6.55965737 0.167710988,6.48802304 0.212310306,6.42321104 C0.226033174,6.40615525 0.232894607,6.3856883 0.239756041,6.36522135 C0.250048191,6.33793208 0.256909625,6.30723166 0.267201775,6.27994239 C0.270632492,6.27312007 0.274063209,6.26629776 0.270632492,6.25947544 C0.256909625,6.21171922 0.277493926,6.16396301 0.284355359,6.11961795 C0.308370377,6.00022741 0.29464751,5.87742571 0.298078227,5.75803517 C0.301508943,5.70004548 0.30493966,5.64205579 0.298078227,5.58747726 C0.277493926,5.39986355 0.29464751,5.21224985 0.287786076,5.0280473 C0.284355359,4.89842329 0.277493926,4.76879927 0.267201775,4.63917526 C0.260340342,4.52660703 0.256909625,4.41403881 0.256909625,4.30147059 C0.256909625,4.24006974 0.243186758,4.18208005 0.236325324,4.1206792 C0.22946389,4.05927835 0.226033174,3.9978775 0.222602457,3.93306549 C0.21917174,3.89213159 0.215741023,3.8511977 0.215741023,3.80685264 C0.212310306,3.73180716 0.212310306,3.65676167 0.212310306,3.57830503 C0.212310306,3.4827926 0.21917174,3.39069133 0.222602457,3.2951789 C0.222602457,3.26788963 0.21917174,3.23718921 0.215741023,3.20989994 C0.215741023,3.19625531 0.212310306,3.17919951 0.212310306,3.16555488 C0.222602457,3.07345361 0.226033174,2.98135233 0.246617475,2.88925106 C0.260340342,2.82785021 0.250048191,2.76644936 0.267201775,2.70504851 C0.270632492,2.69481504 0.256909625,2.67775925 0.250048191,2.66411461 C0.232894607,2.63341419 0.22946389,2.62659187 0.260340342,2.60612492 C0.291216793,2.58224682 0.311801094,2.55836871 0.325523961,2.52084597 C0.335816112,2.48673438 0.359831129,2.45944512 0.376984713,2.42874469 C0.394138297,2.39463311 0.407861165,2.36393269 0.397569014,2.32299879 C0.390707581,2.305943 0.397569014,2.2888872 0.414722598,2.27865373 C0.428445465,2.27183141 0.442168333,2.26159794 0.452460483,2.25477562 C0.473044784,2.24113099 0.493629085,2.22748636 0.486767651,2.19337477 C0.483336934,2.17290782 0.493629085,2.14902971 0.514213386,2.13197392 C0.527936253,2.12174045 0.54165912,2.11150697 0.555381987,2.10468466 C0.54165912,2.08080655 0.534797687,2.06375076 0.524505536,2.03987265 C0.551951271,2.02622802 0.575966288,2.00576107 0.603412023,1.99552759 C0.654872775,1.97506064 0.699472093,1.94777138 0.720056394,1.89319284 C0.726917828,1.87272589 0.747502129,1.8556701 0.761224996,1.83520315 C0.747502129,1.79426925 0.750932846,1.78744694 0.792101447,1.77039115 C0.833270049,1.75333535 0.874438651,1.73627956 0.912176536,1.71922377 C0.956775854,1.69534566 0.980790872,1.65782292 0.994513739,1.61006671 C1.00823661,1.56231049 1.01509804,1.55889933 1.05283592,1.5861886 C1.08371238,1.60665555 1.12145026,1.60324439 1.148896,1.57595512 C1.15575743,1.56913281 1.16261886,1.55889933 1.16261886,1.55548817 C1.19349531,1.55207702 1.21751033,1.55207702 1.24152535,1.54866586 C1.30327825,1.54184354 1.36503115,1.53502122 1.42678406,1.52478775 C1.44736836,1.52137659 1.46452194,1.51796543 1.48510624,1.50773196 C1.51598269,1.49408733 1.54685915,1.49067617 1.5777356,1.5043208 C1.59488918,1.51114312 1.61204276,1.51455428 1.63262707,1.51455428 C1.75956359,1.51796543 1.88650011,1.52137659 2.01343663,1.52478775 C2.09920455,1.52819891 2.18154176,1.53161007 2.26730968,1.53161007 C2.36680046,1.53161007 2.46972197,1.52137659 2.56921275,1.52137659 C2.74417931,1.52137659 2.91571515,1.5043208 3.09068171,1.51455428 C3.16615748,1.52137659 3.24506397,1.50773196 3.32397045,1.50090964 C3.43718411,1.49408733 3.55039776,1.48726501 3.6601807,1.48044269 C3.69448787,1.47703153 3.72536432,1.47020922 3.75967149,1.46679806 C3.78025579,1.4633869 3.80084009,1.46679806 3.81799367,1.46679806 C3.83514726,1.46679806 3.84887012,1.47362038 3.86602371,1.45315343 C3.87288514,1.44291995 3.90376159,1.44633111 3.92434589,1.44633111 C3.93463804,1.4633869 3.92434589,1.48385385 3.95179163,1.48726501 C4.03069812,1.49749848 4.10617389,1.52478775 4.18508037,1.53161007 C4.30858618,1.54184354 4.43209198,1.56231049 4.55559779,1.56913281 C4.67910359,1.57936628 4.80604011,1.57936628 4.92954592,1.58277744 C4.98786811,1.5861886 5.04619029,1.57595512 5.10108176,1.59301092 C5.17655753,1.61347787 5.24860258,1.61006671 5.32064764,1.60324439 C5.42013842,1.59642207 5.51962921,1.59642207 5.61912,1.58959976 C5.71861079,1.58277744 5.81810157,1.57254397 5.91759236,1.56231049 C5.94160738,1.56231049 5.96219168,1.56913281 5.9862067,1.57254397 C5.99992956,1.57595512 6.01708315,1.57936628 6.03080602,1.57936628 C6.15774254,1.56913281 6.28467906,1.55889933 6.40818486,1.55207702 C6.47336848,1.54866586 6.5385521,1.55207702 6.60373572,1.54866586 C6.64833504,1.5452547 6.69636508,1.54184354 6.7409644,1.53502122 C6.85760877,1.51796543 6.97768385,1.52819891 7.09432823,1.52478775 C7.16637328,1.52137659 7.23841833,1.52819891 7.31046339,1.52819891 C7.32418625,1.52819891 7.33790912,1.52819891 7.35163199,1.52478775 C7.48199923,1.49408733 7.61579718,1.48044269 7.75302585,1.46679806 C7.81134804,1.45997574 7.86623951,1.44291995 7.92113098,1.43268648 C8.01376033,1.41904184 8.1098204,1.40880837 8.20244976,1.39516374 C8.31223269,1.3815191 8.42544635,1.38834142 8.53522929,1.38493026 C8.59012076,1.38493026 8.64158151,1.39857489 8.69647298,1.40198605 C8.73764158,1.40539721 8.77881018,1.40198605 8.8234095,1.40198605 C8.85428595,1.40198605 8.88859312,1.40880837 8.91946957,1.40198605 C8.9674996,1.39516374 9.01552964,1.41221953 9.06355968,1.41563069 C9.11158971,1.41563069 9.15618903,1.42586416 9.20421906,1.42927532 C9.26940268,1.43609763 9.3345863,1.43950879 9.39976992,1.44291995 C9.46495354,1.44633111 9.52670644,1.44291995 9.59189006,1.44633111 C9.60904365,1.44633111 9.62962795,1.44974227 9.65021225,1.45315343 C9.69824228,1.40880837 9.75313375,1.37128563 9.82174809,1.36105215 C9.85948597,1.35422984 9.89379314,1.3405852 9.92810031,1.32694057 C10.0001454,1.2996513 10.0756211,1.27918435 10.1476662,1.25530625 C10.1613891,1.25189509 10.1716812,1.24507277 10.1854041,1.24166161 C10.271172,1.21096119 10.3569399,1.17684961 10.4427078,1.14614918 C10.4632921,1.13932686 10.4873072,1.13250455 10.5078915,1.12568223 C10.5147529,1.12227107 10.5216143,1.11885992 10.525045,1.11885992 C10.5902287,1.09839297 10.6554123,1.07792602 10.7240266,1.05745907 C10.7617645,1.04381443 10.7995024,1.03358096 10.840671,1.01993633 C10.9230082,0.996058217 11.0019147,0.975591267 11.0842519,0.951713159 C11.0911133,0.948302001 11.1014055,0.948302001 11.1082669,0.944890843 C11.1597276,0.917601577 11.2180498,0.914190418 11.276372,0.903956944 C11.3244021,0.897134627 11.3758628,0.880078836 11.4170314,0.852789569 C11.5233836,0.79138872 11.6263051,0.723165555 11.7326574,0.658353548 C11.7463802,0.651531231 11.7566724,0.637886598 11.7703952,0.63447544 C11.8493017,0.607186173 11.9007625,0.549196483 11.9522232,0.487795634 C11.9247775,0.450272893 11.9076239,0.409338993 11.9213468,0.364993936 C11.9247775,0.351349303 11.9282082,0.334293511 11.9385004,0.324060036 C11.9728075,0.286537295 12.0071147,0.245603396 12.0448526,0.21831413 C12.1100362,0.173969072 12.1820813,0.163735597 12.2609877,0.184202547 C12.281572,0.191024864 12.3055871,0.187613705 12.3296021,0.191024864 C12.3296021,0.187613705 12.3330328,0.184202547 12.3330328,0.17738023 C12.3158792,0.167146756 12.3021563,0.153502122 12.2781413,0.136446331 C12.3227406,0.109157065 12.3639092,0.122801698 12.4050778,0.129624015 C12.4016471,0.11939054 12.4016471,0.112568223 12.3982164,0.105745907 C12.3947857,0.0818677987 12.4050778,0.0716343238 12.4256621,0.0784566404 C12.4531079,0.0886901152 12.4702615,0.0784566404 12.4771229,0.0477562159 C12.4942765,0.0545785324 12.5114301,0.061400849 12.5251529,0.0648120073 C12.5457372,0.0272892662 12.5560294,0.0272892662 12.5903366,0.0750454821 C12.5937673,0.061400849 12.597198,0.0477562159 12.6040594,0.0375227411 C12.6177823,0.0102334748 12.6383666,0.00682231656 12.6623816,0.0272892662 C12.6761045,0.0409338993 12.6898273,0.0545785324 12.7035502,0.0682231656 C12.7069809,0.0682231656 12.7104116,0.0648120073 12.7138424,0.0648120073 C12.7138424,0.0511673742 12.7069809,0.0409338993 12.7104116,0.0307004245 C12.7138424,0.0204669497 12.7275652,0.0136446331 12.7412881,0 C12.755011,0.0272892662 12.7653031,0.0443450576 12.7755953,0.0682231656 C12.7824567,0.0545785324 12.7893181,0.0443450576 12.7961796,0.0341115828 C12.8133331,0.0102334748 12.8236253,0.00682231656 12.8442096,0.0307004245 C12.8545017,0.0409338993 12.8613632,0.0511673742 12.8716553,0.0648120073 C12.8819475,0.0477562159 12.8922396,0.0341115828 12.8991011,0.0238781079 C12.9539925,0.0341115828 12.9093932,0.0989235901 12.9574233,0.109157065 C12.960854,0.105745907 12.9642847,0.102334748 12.9642847,0.102334748 C12.960854,0.0886901152 12.9437004,0.0750454821 12.9642847,0.061400849 C12.9814383,0.0511673742 12.9951611,0.061400849 13.0054533,0.0750454821 C13.0260376,0.0955124318 13.0431912,0.0955124318 13.0706369,0.0921012735 C13.1564048,0.0852789569 13.2421727,0.0886901152 13.3279407,0.0921012735 C13.3896936,0.0955124318 13.4480158,0.102334748 13.5097687,0.105745907 C13.5372144,0.109157065 13.5680908,0.112568223 13.5955366,0.11939054 C13.6332745,0.129624015 13.6675816,0.136446331 13.7053195,0.136446331 C13.7293345,0.136446331 13.7499188,0.146679806 13.7739339,0.153502122 C13.7876567,0.156913281 13.7979489,0.163735597 13.8116717,0.167146756 C13.8905782,0.180791389 13.9489004,0.225136446 14.0106533,0.272892662 C14.0243762,0.283126137 14.038099,0.293359612 14.0518219,0.300181928 C14.0929905,0.31723772 14.1204363,0.347938144 14.1341591,0.388872044 C14.1444513,0.412750152 14.1547434,0.429805943 14.1856199,0.429805943 C14.2576649,0.426394785 14.3262793,0.446861734 14.3880322,0.477562159 C14.4497851,0.508262583 14.511538,0.549196483 14.5664294,0.596952699 C14.5698602,0.600363857 14.5732909,0.603775015 14.5767216,0.610597332 C14.5149687,0.729987871 14.4223393,0.822089145 14.305695,0.89031231 C14.1890506,0.961946634 14.0586833,0.982413584 13.918024,0.982413584 C13.9283161,1.05063675 13.9351775,1.11544876 13.9523311,1.17684961 C13.9626233,1.21778351 13.9934997,1.25189509 14.0175147,1.28941783 C14.0689755,1.37469679 14.1204363,1.45997574 14.171897,1.5452547 C14.1821892,1.56231049 14.195912,1.57595512 14.2096349,1.59301092 C14.2576649,1.65100061 14.2954028,1.71581261 14.3502943,1.76356883 C14.4086165,1.8147362 14.4394929,1.88978169 14.5046765,1.93412674 C14.5149687,1.94094906 14.5218301,1.95118253 14.5252608,1.96141601 C14.5321223,1.98188296 14.5492759,1.99211643 14.5698602,2.00576107 C14.5973059,2.02281686 14.6213209,2.05010612 14.6453359,2.07398423 C14.6967967,2.12174045 14.7585496,2.15244087 14.8203025,2.1831413 C14.8546096,2.20019709 14.8889168,2.22066404 14.9129318,2.25136446 C14.9197933,2.26159794 14.9335161,2.26842025 14.9438083,2.27524257 C14.9849769,2.30935415 15.0055612,2.35369921 14.9986998,2.40827774 C14.995269,2.44921164 14.9884076,2.49014554 14.9849769,2.5344906 C14.9849769,2.53790176 14.9849769,2.54131292 14.9849769,2.54472408 C14.923224,2.59930261 14.947239,2.68458156 14.9163626,2.74939357 C14.8957783,2.79714979 14.8717632,2.83467253 14.8305946,2.86878411 C14.7859953,2.90289569 14.7448267,2.9267738 14.6865045,2.93359612 C14.6727817,2.93359612 14.6590588,2.94382959 14.6487666,2.95065191 C14.6178902,2.97453002 14.583583,2.97794118 14.5458451,2.97111886 C14.4497851,2.95747423 14.3502943,2.95065191 14.2542342,2.93018496 C14.1753277,2.91312917 14.099852,2.8858399 14.0209455,2.8619618 C14.0106533,2.85855064 13.9969304,2.85172832 13.9866383,2.85172832 C13.9386083,2.85855064 13.8940089,2.84831716 13.8459789,2.844906 C13.7807953,2.84149485 13.712181,2.83808369 13.6469973,2.8210279 C13.6058287,2.81079442 13.5646601,2.81079442 13.5200608,2.81079442 C13.4617386,2.81079442 13.4068472,2.81420558 13.348525,2.81761674 C13.3039257,2.8210279 13.2593263,2.82443905 13.2181577,2.82443905 C13.1358205,2.82785021 13.0534833,2.8210279 12.9711461,2.82785021 C12.9196854,2.83467253 12.8716553,2.8210279 12.8236253,2.80738326 C12.7961796,2.80056095 12.7687338,2.79714979 12.7378574,2.79373863 C12.6761045,2.78691631 12.6315052,2.79714979 12.5697523,2.8039721 C12.5217222,2.81079442 12.4702615,2.82443905 12.4222314,2.8210279 C12.3604785,2.81761674 12.3193099,2.844906 12.2884335,2.88925106 C12.2404034,2.95747423 12.1889427,3.02910855 12.1443434,3.10074287 C12.075729,3.20648878 12.0242683,3.32246816 11.9453618,3.42139175 C11.9247775,3.44868102 11.9144853,3.48620376 11.893901,3.51349303 C11.8664553,3.55783808 11.8287174,3.59536082 11.8012717,3.63970588 C11.7292266,3.74545179 11.6537509,3.8511977 11.5817058,3.9569436 C11.5679829,3.97741055 11.5542601,4.00128866 11.5233836,4.01152213 C11.5130915,4.01493329 11.50623,4.02516677 11.4993686,4.03540024 C11.4273236,4.13773499 11.3587092,4.2434809 11.2798027,4.34240449 C11.2420648,4.3901607 11.2111884,4.43791692 11.1837427,4.48908429 C11.1494355,4.56071862 11.1254205,4.6357641 11.094544,4.70739842 C11.0911133,4.7176319 11.0876826,4.72786537 11.0842519,4.73468769 C11.0499447,4.77903275 11.0293604,4.82678896 11.0087761,4.87795634 C10.998484,4.90183445 10.9881918,4.92571255 10.9813304,4.95300182 C10.9676075,5.04510309 10.9333003,5.12697089 10.8989932,5.21224985 C10.8921317,5.22930564 10.8749782,5.23953911 10.8681167,5.25659491 C10.8543938,5.28388417 10.8441017,5.3145846 10.8303788,5.34528502 C10.8063638,5.39986355 10.7857795,5.45444209 10.7617645,5.50902062 C10.7480416,5.53972104 10.730888,5.57042147 10.7171652,5.60112189 C10.6897194,5.65911158 10.6485508,5.70345664 10.6073822,5.75121286 C10.5833672,5.78191328 10.5593522,5.81261371 10.5353372,5.84331413 C10.4667229,5.92518193 10.3946778,6.00704973 10.3260635,6.08891753 C10.3157713,6.10256216 10.3089099,6.11620679 10.3020484,6.13326258 C10.2986177,6.1400849 10.2986177,6.14690722 10.295187,6.15031837 C10.2505877,6.21854154 10.2128498,6.29017586 10.1545276,6.34816555 C10.1064976,6.39592177 10.0481754,6.44367799 9.97269963,6.46414494 C9.96240748,6.46755609 9.94868461,6.47096725 9.94182318,6.47778957 C9.88350099,6.52213463 9.82174809,6.52895694 9.75313375,6.50507884 C9.74627232,6.50166768 9.73941089,6.50166768 9.73254945,6.50166768 C9.72568802,6.51531231 9.71539587,6.52554579 9.70853444,6.53919042 C9.6810887,6.59718011 9.65021225,6.65175864 9.62276652,6.70974833 C9.61247436,6.72680412 9.60561293,6.74727107 9.60218221,6.76773802 C9.58845935,6.84619466 9.55415218,6.91782899 9.52670644,6.99287447 C9.49582999,7.07474227 9.47181498,7.16343238 9.48210713,7.2521225 C9.48210713,7.25894482 9.48553784,7.26917829 9.48210713,7.27600061 C9.45466139,7.34763493 9.46152283,7.42609157 9.44779996,7.49772589 C9.43750781,7.55912674 9.42721566,7.62393875 9.41349279,7.6853396 C9.39976992,7.76038508 9.35173989,7.81837477 9.314002,7.88318678 C9.31057129,7.8900091 9.2934177,7.89342025 9.28998698,7.89683141 C9.29684842,7.9548211 9.30714057,8.01281079 9.30370985,8.07080049 C9.30027913,8.16972408 9.2934177,8.26864767 9.28655627,8.36757126 C9.28655627,8.37098241 9.28655627,8.37439357 9.28655627,8.37780473 C9.314002,8.47331716 9.28655627,8.56882959 9.29684842,8.66434203 C9.30370985,8.74279867 9.314002,8.82125531 9.31743272,8.89971195 C9.32429415,9.01569133 9.36889347,9.12143723 9.39290849,9.23400546 C9.40663136,9.30563978 9.45123067,9.35680716 9.52327573,9.38409642 C9.60561293,9.41479685 9.6810887,9.4591419 9.7428416,9.52395391 C9.74627232,9.52736507 9.74970304,9.53077623 9.75656447,9.53418739 C9.81831737,9.54783202 9.84233239,9.60582171 9.88693171,9.63993329 C9.93153103,9.67404488 9.95897676,9.72521225 9.9864225,9.77296847 C10.0035761,9.80366889 10.0138682,9.83436931 9.99328393,9.8684809 C9.98299178,9.86506974 9.97613035,9.86165858 9.9658382,9.86165858 C9.95554605,9.87871437 9.9658382,9.91623711 9.92466959,9.90259248 C9.92123888,9.90259248 9.91094673,9.91282596 9.91094673,9.91964827 C9.90408529,9.94352638 9.88350099,9.95375985 9.86291669,9.96058217 C9.82174809,9.9742268 9.78057949,9.9912826 9.73598017,9.97081565 C9.73254945,9.97081565 9.72568802,9.97081565 9.7222573,9.97081565 C9.63648938,9.99469375 9.5575829,9.97081565 9.47524569,9.96058217 C9.42721566,9.95375985 9.37918562,9.9503487 9.3345863,9.94352638 C9.2934177,9.9332929 9.25567982,9.91964827 9.21451121,9.90600364 C9.18706548,9.89577016 9.17334261,9.87530321 9.17334261,9.84801395 C9.1699119,9.79684657 9.13903544,9.77296847 9.09786684,9.75932383 C9.06699039,9.74909036 9.03268322,9.7456792 8.99837606,9.7456792 C8.90917742,9.7456792 8.81997878,9.74226804 8.73421086,9.71156762 C8.71362656,9.7047453 8.68618083,9.70133414 8.66559653,9.7047453 C8.61413577,9.70815646 8.5592443,9.70815646 8.51121427,9.69110067 C8.50092212,9.68768951 8.49062997,9.68768951 8.48033782,9.68427835 C8.42887707,9.67745603 8.37741631,9.67063372 8.32252484,9.6638114 C8.32252484,9.63652213 8.32252484,9.61605518 8.32252484,9.59217708 C8.33281699,9.59558824 8.34310915,9.59899939 8.35683201,9.60241055 C8.3534013,9.55465434 8.33281699,9.52054275 8.31566341,9.48302001 C8.29507911,9.43867495 8.27449481,9.3943299 8.27106409,9.34657368 C8.27106409,9.31587326 8.25047979,9.29540631 8.22989549,9.29540631 C8.17500402,9.29199515 8.16814259,9.25788357 8.16471187,9.21694967 C8.16471187,9.21694967 8.16128115,9.21353851 8.16128115,9.21012735 C8.12697399,9.21694967 8.14412757,9.24765009 8.13726614,9.26470588 C8.12354327,9.2715282 8.1098204,9.28176167 8.09266682,9.28517283 C8.07894395,9.28858399 8.06179037,9.28517283 8.04463678,9.28176167 C8.03091392,9.27835052 8.01719105,9.2715282 8.00346818,9.26811704 C7.96916101,9.26129472 7.96229958,9.25788357 7.96229958,9.22377198 C7.95886886,9.17260461 7.9657303,9.12484839 7.98974531,9.07368102 C8.02405248,8.99181322 8.05149822,8.90653426 8.06522108,8.81784415 C8.07551323,8.73256519 8.0892361,8.64728623 8.10295897,8.56541844 C8.10295897,8.55518496 8.1098204,8.54495149 8.11325112,8.53130685 C8.12011255,8.49719527 8.12697399,8.46649485 8.1304047,8.43238326 C8.13726614,8.40168284 8.14069685,8.37098241 8.14412757,8.33687083 C8.150989,8.22089145 8.15785044,8.10150091 8.16814259,7.98552153 C8.17500402,7.91729836 8.16471187,7.8490752 8.16128115,7.78085203 C8.15785044,7.73991813 8.150989,7.70239539 8.14755829,7.66146149 C8.14412757,7.61711643 8.12697399,7.57959369 8.10638969,7.54548211 C8.07208252,7.49772589 8.07551323,7.44314736 8.07894395,7.39197999 C8.0892361,7.28623408 8.0892361,7.18048817 8.0686518,7.07474227 C8.06522108,7.06450879 8.06522108,7.05427532 8.0686518,7.04404184 C8.09266682,6.95876289 8.08580538,6.87348393 8.08237467,6.78820497 C8.07894395,6.73021528 8.07551323,6.67222559 8.07551323,6.61082474 C8.07551323,6.573302 8.07551323,6.53577926 8.07894395,6.50166768 C8.08237467,6.47437841 8.07551323,6.45391146 8.06179037,6.43003335 C8.05149822,6.41638872 8.04120607,6.39933293 8.03434463,6.38227714 C8.01032961,6.32428745 7.9863146,6.26629776 7.96229958,6.20489691 C7.90054668,6.21513038 7.83193234,6.2219527 7.76674872,6.23218617 C7.69813438,6.24241965 7.62952005,6.25265312 7.56090571,6.26629776 C7.54375213,6.26970891 7.52659854,6.27653123 7.50944496,6.27994239 C7.47170708,6.28676471 7.43739991,6.29358702 7.39966202,6.29699818 C7.38250844,6.30040934 7.36535485,6.29699818 7.34820127,6.29699818 C7.34477055,6.31064281 7.33790912,6.32087629 7.3344784,6.33452092 C7.26586407,6.3038205 7.21440331,6.34816555 7.15951185,6.3686325 C7.09775894,6.38909945 7.03943676,6.41638872 6.97768385,6.44367799 C6.96053027,6.4505003 6.93994597,6.46073378 6.92279239,6.47096725 C6.90220809,6.48461189 6.8850545,6.4914342 6.86103948,6.48802304 C6.84731662,6.48461189 6.83359375,6.48802304 6.81987088,6.49484536 C6.75125655,6.5323681 6.67235006,6.5323681 6.60373572,6.56306853 C6.57628999,6.57671316 6.53512139,6.573302 6.50424494,6.56989084 C6.43906132,6.56306853 6.3738777,6.55624621 6.30869408,6.56989084 C6.25037189,6.58353548 6.18861899,6.58353548 6.12686609,6.59035779 C6.08569748,6.59718011 6.04452888,6.6142359 6.00336028,6.62446938 C5.98963741,6.62788053 5.96905311,6.63470285 5.95876096,6.62788053 C5.92445379,6.61082474 5.89014663,6.62105822 5.85583946,6.62788053 C5.84211659,6.63129169 5.82496301,6.63470285 5.81467086,6.62788053 C5.77350225,6.60741358 5.73233365,6.62446938 5.69116505,6.63129169 C5.67744218,6.63470285 5.6602886,6.63811401 5.64656573,6.64152517 C5.62598143,6.64834748 5.60196641,6.64834748 5.58481283,6.65858096 C5.56422853,6.67563675 5.54707495,6.67563675 5.52649064,6.66199212 C5.50590634,6.64834748 5.48189133,6.64493633 5.46130703,6.66199212 C5.44072272,6.67563675 5.42013842,6.67222559 5.39955412,6.66540327 C5.33093979,6.63811401 5.25889473,6.6142359 5.18684968,6.59035779 C5.16626538,6.58353548 5.14568108,6.58012432 5.11823534,6.58353548 C5.09078961,6.58694663 5.05991316,6.56989084 5.03246742,6.55965737 C5.01188312,6.55283505 4.99129882,6.54260158 4.97414524,6.52895694 C4.90896162,6.47778957 4.82662442,6.46073378 4.75457936,6.4266222 C4.67567288,6.38909945 4.58647424,6.37886598 4.50413704,6.35157671 C4.48355273,6.3447544 4.45953772,6.3447544 4.43895342,6.34816555 C4.41150768,6.35498787 4.38406195,6.35157671 4.36004693,6.34134324 C4.33260119,6.33110976 4.30858618,6.33793208 4.28800188,6.36181019 C4.22967969,6.4266222 4.1713575,6.48802304 4.1096046,6.54942389 C4.07872815,6.58012432 4.04442098,6.60741358 4.01011381,6.63811401 C3.94836091,6.69269254 3.89003873,6.74385992 3.82485511,6.79502729 C3.78025579,6.83255003 3.73222575,6.86666161 3.680765,6.9007732 C3.65331927,6.91782899 3.62244282,6.93488478 3.58813565,6.9417071 C3.54696705,6.95194057 3.51265988,6.97240752 3.49207558,7.0065191 C3.46119913,7.05086416 3.42346124,7.09520922 3.42003052,7.15319891 C3.41316909,7.23506671 3.39258479,7.31693451 3.36856977,7.39539115 C3.36513905,7.3988023 3.36170834,7.40221346 3.35827762,7.40221346 C3.27937113,7.41926925 3.293094,7.42950273 3.24506397,7.34422377 C3.22104895,7.29987871 3.19703393,7.2521225 3.18674178,7.20095512 C3.18674178,7.19413281 3.17988035,7.18731049 3.17301891,7.17707702 C3.16272676,7.19413281 3.15243461,7.20436628 3.14557318,7.21801092 C3.11812744,7.25553366 3.07695884,7.25894482 3.04951311,7.22142207 C3.01520594,7.17366586 2.99462164,7.12249848 2.98089877,7.06450879 C2.97746805,7.05427532 2.97746805,7.04404184 2.97403734,7.03380837 C2.90199229,7.04063069 2.82994723,7.05086416 2.75447146,7.05768648 C2.75447146,7.08156458 2.75104075,7.09862038 2.75447146,7.11908733 C2.76819433,7.23165555 2.78534791,7.34422377 2.79907078,7.456792 C2.80936293,7.52501516 2.80936293,7.58982717 2.8230858,7.65805033 C2.83680867,7.72968466 2.86082368,7.79790782 2.88140798,7.86613099 C2.905423,7.93776531 2.93286874,8.00939964 2.95688375,8.08444512 C2.97060662,8.12537902 2.97746805,8.16972408 2.98432949,8.21406913 C2.99805236,8.30958156 3.01863666,8.405094 3.05294382,8.49719527 C3.06323598,8.52107338 3.06323598,8.54495149 3.06666669,8.57224075 C3.07009741,8.59953002 3.07695884,8.62340813 3.10783529,8.64046392 C3.08038956,8.67798666 3.09411243,8.71209824 3.11469673,8.73938751 C3.16615748,8.80761067 3.22104895,8.86901152 3.2725097,8.93382353 C3.27937113,8.94064585 3.28623257,8.94746816 3.29652472,8.95429048 C3.3548469,8.9849909 3.41316909,9.01569133 3.46806056,9.04639175 C3.48864486,9.06003639 3.50579844,9.07709218 3.52638274,9.09414797 C3.53667489,9.10097029 3.54696705,9.11120376 3.5572592,9.11802608 C3.56412063,9.12143723 3.5778435,9.12484839 3.5778435,9.13167071 C3.58813565,9.18624924 3.64645783,9.19989388 3.67047285,9.24423893 C3.68762643,9.27493936 3.71507217,9.30222862 3.74594862,9.32610673 C3.79740937,9.36704063 3.81456296,9.42161916 3.82142439,9.48643117 C3.81799367,9.48643117 3.81456296,9.48984233 3.81113224,9.48984233 C3.80770152,9.48984233 3.80427081,9.48984233 3.80084009,9.48984233 C3.80084009,9.52736507 3.79740937,9.52736507 3.7631022,9.53077623 C3.67047285,9.53759854 3.5778435,9.54783202 3.48521414,9.55465434 C3.45433769,9.55806549 3.42346124,9.55806549 3.39258479,9.55124318 C3.32740117,9.53759854 3.26221755,9.53418739 3.19703393,9.53759854 C3.17644963,9.53759854 3.15929605,9.53077623 3.14214246,9.52054275 C3.10783529,9.49666465 3.06666669,9.48302001 3.02892881,9.46596422 C2.99119092,9.44549727 2.96374519,9.418208 2.95002232,9.37386295 C2.93629945,9.32951789 2.91228444,9.28858399 2.88140798,9.25447241 C2.86082368,9.2305943 2.82651652,9.22036082 2.79564006,9.20671619 C2.77848648,9.19989388 2.75790218,9.19307156 2.7407486,9.18624924 C2.71330286,9.20330503 2.68928784,9.22718314 2.65841139,9.24423893 C2.62067351,9.26470588 2.57950491,9.24423893 2.56578204,9.20330503 C2.5589206,9.17601577 2.55205917,9.15213766 2.54519774,9.12484839 C2.54519774,9.11802608 2.54176702,9.11120376 2.54176702,9.10438144 C2.56578204,9.01910249 2.53147487,8.93382353 2.52804415,8.84854457 C2.52461344,8.78032141 2.51089057,8.71209824 2.50402914,8.64387508 C2.50402914,8.62681928 2.50745985,8.61317465 2.50745985,8.60294118 C2.4971677,8.57565191 2.49030627,8.5517738 2.48001412,8.52789569 C2.44913767,8.43238326 2.43198408,8.33687083 2.3942462,8.24476956 C2.36336975,8.17313523 2.34278545,8.09467859 2.31877043,8.01963311 C2.28789398,7.92753184 2.26044824,7.83884172 2.22614107,7.74674045 C2.20212606,7.6853396 2.16438817,7.63076107 2.11635814,7.57618253 C2.06146667,7.51137053 2.03059022,7.43291389 1.99971376,7.35445725 C1.97226803,7.28964524 1.9448223,7.22483323 1.91394584,7.16343238 C1.88993083,7.11567617 1.87277724,7.06450879 1.88306939,7.00993026 C1.89679226,6.93488478 1.90022298,6.8598393 1.93109943,6.79161613 C1.94139158,6.76432686 1.9448223,6.73362644 1.95168373,6.69951486 C1.89679226,6.73021528 1.85905438,6.77114918 1.81788577,6.80867192 C1.77328645,6.84960582 1.72868714,6.89053972 1.68751853,6.93488478 C1.66693423,6.95876289 1.64634993,6.98946331 1.63605778,7.02016374 C1.62576563,7.05086416 1.6189042,7.07815343 1.59488918,7.09862038 C1.58802775,7.10544269 1.58116631,7.11226501 1.5777356,7.12249848 C1.5571513,7.18731049 1.50912126,7.23847787 1.47824481,7.29646756 C1.46795266,7.31693451 1.45422979,7.34081261 1.45422979,7.36127956 C1.45079907,7.43291389 1.40963047,7.49431474 1.38561546,7.5625379 C1.37875402,7.57959369 1.36160044,7.58982717 1.354739,7.60688296 C1.3341547,7.64781686 1.3135704,7.68875076 1.28955538,7.73309582 C1.22094105,7.86954215 1.19692603,8.01622195 1.18320316,8.16290176 C1.17634173,8.23453608 1.16261886,8.30617041 1.148896,8.37780473 C1.148896,8.38462705 1.14546528,8.39144936 1.14546528,8.39827168 C1.16261886,8.49719527 1.13860385,8.5927077 1.14203456,8.68822013 C1.14546528,8.75303214 1.15575743,8.81443299 1.16261886,8.879245 C1.17291101,8.96793511 1.18320316,9.06003639 1.19349531,9.1487265 C1.19692603,9.1896604 1.20035675,9.2305943 1.23809463,9.26129472 C1.25867893,9.27835052 1.26554037,9.3124621 1.2724018,9.33634021 C1.28269395,9.36362947 1.29641682,9.37727411 1.32729327,9.37727411 C1.35130829,9.37727411 1.3753233,9.39091874 1.39590761,9.40456337 C1.44393764,9.43867495 1.48167553,9.48302001 1.49882911,9.5410097 C1.50569054,9.56147665 1.52284413,9.57512129 1.53999771,9.58876592 C1.5571513,9.60582171 1.5777356,9.61946634 1.59488918,9.63311098 C1.60175061,9.63652213 1.60861205,9.63993329 1.60861205,9.64675561 C1.62919635,9.72180109 1.7012414,9.75250152 1.73554857,9.81390237 C1.74241,9.827547 1.75270215,9.83778047 1.75613287,9.85483626 C1.76642502,9.90600364 1.75270215,9.91964827 1.7012414,9.92305943 C1.68408782,9.98446028 1.63262707,9.98787144 1.58459703,9.98787144 C1.52627484,9.9912826 1.47138338,10.0015161 1.41306119,9.9912826 C1.35816972,9.98446028 1.30327825,9.99469375 1.24838678,9.99810491 C1.20721818,10.0015161 1.1694803,10.0015161 1.12831169,9.98787144 C1.10429668,9.98104912 1.07685094,9.97763796 1.05283592,9.97763796 C1.00823661,9.9742268 0.970498721,9.96058217 0.932760836,9.93670406 C0.925899403,9.9332929 0.915607252,9.92647059 0.915607252,9.91964827 C0.908745819,9.88212553 0.874438651,9.87530321 0.850423633,9.85483626 C0.822977899,9.83095816 0.798962881,9.80366889 0.774947863,9.77637962 C0.771517146,9.76955731 0.771517146,9.75932383 0.771517146,9.75250152 C0.76808643,9.72521225 0.761224996,9.70133414 0.757794279,9.67404488 C0.754363562,9.66040024 0.740640695,9.64675561 0.757794279,9.63311098 C0.761224996,9.62969982 0.757794279,9.61946634 0.757794279,9.61605518 C0.730348545,9.57171013 0.726917828,9.52395391 0.720056394,9.4761977 C0.720056394,9.46596422 0.709764244,9.44890843 0.70290281,9.44208611 C0.675457076,9.42161916 0.644580624,9.40456337 0.613704173,9.38409642 C0.613704173,9.38409642 0.610273456,9.38409642 0.610273456,9.38750758 C0.593119872,9.40115221 0.589689155,9.4352638 0.562243421,9.42503032 C0.534797687,9.41479685 0.510782669,9.40115221 0.497059802,9.37386295 C0.493629085,9.36704063 0.490198368,9.36021831 0.486767651,9.35680716 C0.4558912,9.32610673 0.449029766,9.28858399 0.445599049,9.24765009 C0.438737616,9.14531534 0.459321917,9.04639175 0.490198368,8.95087932 C0.493629085,8.93723469 0.500490518,8.92359005 0.503921235,8.90653426 C0.521074819,8.83489994 0.53136697,8.75985446 0.551951271,8.69163129 C0.586258439,8.58247423 0.589689155,8.46649485 0.61713489,8.35733778 C0.630857757,8.29934809 0.637719191,8.23794724 0.641149908,8.17654639 C0.675457076,8.13902365 0.678887793,8.08444512 0.713194961,8.0366889 Z M8.7410723,7.50113705 C8.73421086,7.51478169 8.73078014,7.521604 8.73078014,7.52842632 C8.72391871,7.55912674 8.72391871,7.58982717 8.71362656,7.62052759 C8.69304226,7.67510612 8.67931939,7.73309582 8.68275011,7.79108551 C8.68275011,7.80473014 8.67931939,7.82178593 8.67588868,7.83543056 C8.66902724,7.89342025 8.64501222,7.95140995 8.65530437,8.01281079 C8.66216581,8.05374469 8.65530437,8.09467859 8.64501222,8.13561249 C8.64158151,8.14925713 8.63472007,8.1594906 8.63472007,8.17313523 C8.61756649,8.26182535 8.63815079,8.35392662 8.61070506,8.44261674 C8.61070506,8.44261674 8.61070506,8.4460279 8.61070506,8.4460279 C8.61070506,8.47672832 8.61070506,8.5108399 8.61070506,8.54154033 C8.61413577,8.62340813 8.61756649,8.70186477 8.62442792,8.78373257 C8.63128936,8.85877805 8.67588868,8.92359005 8.70333441,8.99522438 C8.71362656,9.0259248 8.73078014,9.06003639 8.74793373,9.10097029 C8.75822588,9.0259248 8.76851803,8.9611128 8.77881018,8.89630079 C8.78910233,8.82807762 8.79596376,8.7564433 8.80625591,8.68822013 C8.81311735,8.62340813 8.82684022,8.56200728 8.83027093,8.49719527 C8.83713237,8.41532747 8.83713237,8.33687083 8.83713237,8.25500303 C8.83713237,8.14243481 8.83370165,8.02645543 8.83027093,7.9138872 C8.83027093,7.90706489 8.82684022,7.89683141 8.8234095,7.8900091 C8.79253305,7.82860825 8.77537946,7.76379624 8.77881018,7.69557307 C8.77537946,7.63417223 8.76508731,7.57277138 8.7410723,7.50113705 Z M13.4788922,0.545785324 C13.4994765,0.549196483 13.5166301,0.528729533 13.5234915,0.559429958 C13.5234915,0.566252274 13.5406451,0.569663432 13.5509373,0.573074591 C13.5646601,0.573074591 13.578383,0.573074591 13.5921059,0.569663432 C13.7156117,0.545785324 13.8391175,0.508262583 13.9591926,0.463917526 C13.9523311,0.460506367 13.9454697,0.453684051 13.9386083,0.453684051 C13.9283161,0.450272893 13.918024,0.450272893 13.9077318,0.450272893 C13.8940089,0.450272893 13.8802861,0.450272893 13.8665632,0.446861734 C13.7464881,0.402516677 13.6195516,0.399105518 13.4926151,0.41616131 C13.4651693,0.419572468 13.4411543,0.426394785 13.4068472,0.433217101 C13.4377236,0.467328684 13.4583079,0.504851425 13.4788922,0.545785324 Z" id="Shape"></path>
                    </g>
                </g>
            </g>
        </g>
    </g>
</svg>