
<svg width="20px" height="20px" viewBox="0 0 20 20" version="1.1" xmlns="http://www.w3.org/2000/svg" xmlns:xlink="http://www.w3.org/1999/xlink">
    <!-- Generator: Sketch 51.3 (57544) - http://www.bohemiancoding.com/sketch -->
    <desc>Created with Sketch.</desc>
    <defs></defs>
    <g id="Page-1" stroke="none" stroke-width="1" fill="none" fill-rule="evenodd">
        <g id="Google-Chrome---Modal,-Returned-Results" transform="translate(-797.000000, -260.000000)">
            <g id="logout" transform="translate(797.000000, 260.000000)">
                <g id="Group-3">
                    <polygon id="Clip-2" points="0.00234833659 0.0274363992 10.8184736 0.0274363992 10.8184736 19.9976517 0.00234833659 19.9976517"></polygon>
                    <path d="M9.98630137,18.3356164 L2.49655577,18.3356164 C2.03722114,18.3356164 1.66438356,17.962818 1.66438356,17.5034442 L1.66438356,2.52399217 C1.66438356,2.0646184 2.03722114,1.69181996 2.49655577,1.69181996 L9.98630137,1.69181996 C10.4464971,1.69181996 10.8184736,1.31984344 10.8184736,0.85964775 C10.8184736,0.399412916 10.4464971,0.0274363992 9.98630137,0.0274363992 L2.49655577,0.0274363992 C1.12011742,0.0274363992 0,1.14755382 0,2.52399217 L0,17.5034442 C0,18.8798826 1.12011742,20 2.49655577,20 L9.98630137,20 C10.4464971,20 10.8184736,19.6280235 10.8184736,19.1678278 C10.8184736,18.707593 10.4464971,18.3356164 9.98630137,18.3356164" id="Fill-1" fill="#0A090B"></path>
                </g>
                <path d="M19.7911546,9.42121331 L14.7314286,4.42806262 C14.4052055,4.10516634 13.8776125,4.10931507 13.5547162,4.43636008 C13.23182,4.76344423 13.2351468,5.29021526 13.5630528,5.61311155 L17.1789041,9.18152642 L7.48970646,9.18152642 C7.02951076,9.18152642 6.65753425,9.55350294 6.65753425,10.0137378 C6.65753425,10.4739335 7.02951076,10.84591 7.48970646,10.84591 L17.1789041,10.84591 L13.5630528,14.4143249 C13.2351468,14.7372211 13.2326419,15.2639922 13.5547162,15.5910372 C13.7178082,15.7558121 13.9325245,15.8390607 14.1472407,15.8390607 C14.358591,15.8390607 14.5699804,15.7591389 14.7314286,15.5993738 L19.7911546,10.6062231 C19.9492759,10.4497847 20.0391389,10.2367515 20.0391389,10.0137378 C20.0391389,9.79068493 19.9500978,9.57847358 19.7911546,9.42121331" id="Fill-4" fill="#0A090B"></path>
            </g>
        </g>
    </g>
</svg>