<svg xmlns="http://www.w3.org/2000/svg" fill="none" viewBox="0 0 175 46" class="logo-inverted"><path fill="#000" d="M50.77 13.219c2.292-2.517 2.785-5.846 2.87-6.627a.198.198 0 00-.144-.214C48.948 5.096 40.254 5.353 32.29 9.78a.126.126 0 01-.164-.035l-.462-.608a.127.127 0 01.026-.181c.633-.45 4.07-2.74 9.612-3.799a.153.153 0 00.074-.264C40.277 3.938 35.262 0 27.343 0 17.53 0 11.722 4.939 10.962 5.626a.272.272 0 01-.206.067c-5.331-.538-9.883.72-10.627.94a.161.161 0 00-.114.142c-.19 3.168 1.377 9.396 8.388 10.735a.232.232 0 01.166.124l1.574 3.101c.04.079.044.17.013.253l-6.704 17.42a.298.298 0 00.035.278l.302.427c2.253 3.081 6.045 5.11 10.337 5.11 5.714 0 10.542-3.595 12.028-8.483a.088.088 0 00-.107-.11c-.376.1-.757.19-1.151.269a.176.176 0 00-.132.109c-1.539 4.045-5.745 6.954-10.638 6.954-3.819 0-7.195-1.77-9.226-4.47a.31.31 0 01-.04-.3l6.603-16.886c1.811-4.85.476-7.837-3.553-8.585a.13.13 0 01-.099-.172l.292-.735a.232.232 0 01.157-.137c7.85-1.978 10.124-7.885 10.46-8.89a.31.31 0 01.196-.196 27.798 27.798 0 015.261-1.123.098.098 0 01.094.148c-1.893 3.319-.998 8.646 4.712 10.046a.121.121 0 01.085.161l-.275.715a.224.224 0 01-.22.142c-6.957-.268-9.668 2.658-11.406 7.168l-7.42 19.101c-.04.1.01.214.112.251 1.964.691 4.175.175 5.027-1.984.608-1.54-.206-3.269-.68-4.07-.056-.095.049-.206.15-.152 1.055.567 3.658 1.725 7.319 1.725 6.726 0 15.468-4.603 15.55-14.538a.2.2 0 01.128-.187l.75-.29c.084-.033.179.03.18.122.123 8.094-4.199 13-11.01 15.504a.191.191 0 00-.125.194c.41 5.401-1.567 8.543-2.101 9.287a.137.137 0 00.087.216c1.112.205 6.31.944 11.85-1.958 5.486-2.874 6.782-6.63 10.248-9.31 3.135-2.424 6.31-2.775 7.087-2.825a.22.22 0 00.204-.192c1.09-8.976-3.219-16.448-3.766-17.353a.135.135 0 01.013-.17zM7.636 15.995c-1.064-.3-6.014-2.015-6.33-8.13a.158.158 0 01.185-.163c2.929.512 5.077 2.893 5.451 3.332a.15.15 0 01.027.152l-.59 1.553a.286.286 0 00.01.224l1.359 2.896a.096.096 0 01-.112.135zm18.135 4.588c-.93.139-1.843-.29-2.261-1.152-.233-.475-.686-.539-1.06-.307-.232.144-.565.519-.817.937a.117.117 0 01-.166.04l-.42-.277a.118.118 0 01-.038-.157c.315-.526 1.916-3.027 4.119-3.356.945-.142 1.769.168 2.191.887.272.462.753.7 1.139.447.396-.26.67-.645.786-.828a.117.117 0 01.164-.033l.41.279a.117.117 0 01.03.164c-.372.534-2.242 3.08-4.077 3.355zm12.546-4.161l-2.978-2.126a.161.161 0 01-.03-.236c.851-1.007 6.58-7.257 16.573-6.275.12.01.204.13.171.246-2.255 8.022-11.994 8.467-13.423 8.491a.536.536 0 01-.313-.1zM53.1 29.856c-4.64.635-8.828 4.18-10.972 7.438a.124.124 0 01-.212-.008c-2.975-5.6-.81-11.23 4.046-12.565 3.85-1.057 5.187-4.677 5.09-7.311-.002-.09.114-.125.16-.046 1.152 1.971 2.665 7.791 2.063 12.322a.206.206 0 01-.175.17z"></path><path class="hide-on-mobile" fill="#000" d="M68.978 5.684h24.494v6.106h-17.1v7.04h15.23v6.117h-15.23V33.5h17.1v6.106H68.979V5.684zm28.287-.015h6.907v33.919h-6.907V5.669zm10.699 0h6.907v33.919h-6.907V5.669zm10.41-.095h7.346v6.493h-7.346V5.574zm.243 9.786h6.908v24.228h-6.908V15.36zm9.625 12.113c0-7.752 5.351-12.841 12.795-12.841s12.795 5.087 12.795 12.841c0 7.898-5.351 12.89-12.795 12.89s-12.795-5.426-12.795-12.89zm18.391.098c0-4.991-2.288-7.51-5.596-7.51-3.308 0-5.596 2.519-5.596 7.51s2.288 7.316 5.596 7.316c3.308 0 5.596-2.325 5.596-7.316zm13.341 5.67V20.635h-5.108v-5.49h5.108v-7.39h6.91v7.39h6.546v5.49h-6.546v10.818c0 1.454.633 2.132 2.141 2.132h5.038v6.003h-7.908c-3.943 0-6.181-2.568-6.181-6.347z"></path></svg>
