
<svg width="44px" height="30px" viewBox="0 0 44 30" version="1.1" xmlns="http://www.w3.org/2000/svg" xmlns:xlink="http://www.w3.org/1999/xlink">
    <!-- Generator: Sketch 51.3 (57544) - http://www.bohemiancoding.com/sketch -->
    <desc>Created with Sketch.</desc>
    <defs></defs>
    <g id="Page-1" stroke="none" stroke-width="1" fill="none" fill-rule="evenodd">
        <g id="Google-Chrome---Modal,-User-Login" transform="translate(-476.000000, -255.000000)" fill="#000000">
            <g id="elliot-logo-purple" transform="translate(476.000000, 255.000000)">
                <path d="M2.07033779,23.7630507 C2.02054255,23.7428784 1.99066541,23.722706 1.96078827,23.7126198 C1.96078827,23.6621889 1.95082922,23.611758 1.96078827,23.5714132 C1.99066541,23.3999481 2.0305016,23.2284829 2.06037874,23.067104 C2.07033779,23.0267593 2.07033779,22.9864145 2.07033779,22.9460698 C2.08029684,22.8351218 2.10021493,22.7241737 2.10021493,22.6031395 C2.10021493,22.5123638 2.10021493,22.411502 2.07033779,22.3207263 C2.02054255,22.1896059 2.0105835,22.0584855 2.0105835,21.9273651 C2.0105835,21.8063309 2.02054255,21.6953829 1.94087017,21.5844349 C1.92095207,21.5642625 1.93091112,21.4936592 1.95082922,21.4533145 C2.04046065,21.261677 2.0105835,21.0599533 2.04046065,20.8683158 C2.0504197,20.827971 2.02054255,20.7876263 2.02054255,20.7472816 C2.02054255,20.6766783 2.0305016,20.606075 2.0504197,20.5455579 C2.06037874,20.4850408 2.10021493,20.4245237 2.0504197,20.3640065 C2.04046065,20.3438342 2.0504197,20.2833171 2.07033779,20.2530585 C2.20976446,20.0412486 2.35915018,19.839525 2.50853589,19.6378013 C2.63800351,19.4562499 2.74755304,19.2646124 2.74755304,19.0326302 C2.74755304,18.9821993 2.75751208,18.9216822 2.77743018,18.8712512 C2.84714351,18.6997861 2.9268159,18.528321 2.99652923,18.3467696 C3.00648828,18.3165111 3.02640637,18.2862525 3.03636542,18.2459078 C3.08616066,18.0340979 3.12599685,17.8323742 3.17579209,17.6205644 C3.19571019,17.5297887 3.23554638,17.439013 3.26542352,17.3482374 C3.30525971,17.2272032 3.33513685,17.1162551 3.31521876,16.9851347 C3.30525971,16.9347038 3.31521876,16.8741867 3.33513685,16.8237558 C3.37497304,16.6220321 3.42476828,16.4203084 3.47456352,16.2185847 C3.48452257,16.1580676 3.49448162,16.1177229 3.46460447,16.0672919 C3.43472733,16.0067748 3.42476828,15.9361715 3.41480924,15.8655682 C3.365014,15.7041893 3.31521876,15.5428103 3.27538257,15.3814314 C3.21562828,15.139363 3.15587399,14.8972945 3.1160378,14.6552261 C3.07620161,14.4030715 3.05628352,14.1509169 3.01644733,13.8987623 C2.98657018,13.7272971 2.9268159,13.5659182 2.88697971,13.4045392 C2.87702066,13.3641945 2.87702066,13.3238498 2.88697971,13.2935912 C2.91685685,13.1422984 2.9068978,13.0010918 2.79734828,12.8800576 C2.76747113,12.8497991 2.77743018,12.7791958 2.75751208,12.7186787 C2.64796256,12.6682478 2.63800351,12.5371274 2.60812637,12.4160931 C2.58820827,12.3152313 2.54837208,12.2244556 2.49857684,12.13368 C2.43882256,12.0328181 2.41890446,11.9117839 2.39898637,11.7907497 C2.37906827,11.6697155 2.35915018,11.5486813 2.29939589,11.4377332 C2.22968255,11.316699 2.20976446,11.1754924 2.19980541,11.0342859 C2.18984636,10.8729069 2.15996922,10.7216141 2.14005113,10.5602352 C2.14005113,10.5299766 2.12013303,10.5098043 2.10021493,10.4795457 C2.0305016,10.3988562 2.0105835,10.2979944 2.0305016,10.1971325 C2.0504197,10.1063569 2.0305016,10.0357536 1.98070636,9.97523649 C1.93091112,9.91471938 1.92095207,9.84411609 1.93091112,9.76342661 C1.94087017,9.71299569 1.94087017,9.65247859 1.93091112,9.60204766 C1.92095207,9.43058253 1.90103398,9.25911739 1.89107493,9.07756607 C1.83132065,9.10782462 1.8213616,9.16834173 1.81140255,9.21877265 C1.76160731,9.54153056 1.66201683,9.84411609 1.68193493,10.1769602 C1.68193493,10.1870464 1.67197588,10.2072187 1.68193493,10.2173049 C1.74168922,10.5804076 1.67197588,10.9535964 1.63213969,11.3066128 C1.5923035,11.6697155 1.61222159,12.0227319 1.5923035,12.3757484 C1.5923035,12.4463517 1.58234445,12.516955 1.58234445,12.5875583 C1.58234445,12.90023 1.58234445,13.2028155 1.58234445,13.5154873 C1.58234445,13.6869524 1.5723854,13.8483313 1.5723854,14.0197965 C1.5723854,14.1105721 1.5723854,14.211434 1.58234445,14.3022096 C1.62218064,14.6047952 1.64209874,14.9073807 1.63213969,15.2099663 C1.63213969,15.2402248 1.62218064,15.2805695 1.61222159,15.3108281 C1.5923035,15.3713452 1.56242636,15.4217761 1.61222159,15.4722071 C1.62218064,15.4822932 1.62218064,15.5024656 1.62218064,15.5125518 C1.5723854,15.7142755 1.65205779,15.9159992 1.65205779,16.1177229 C1.65205779,16.4303946 1.64209874,16.7430663 1.64209874,17.055738 C1.64209874,17.2272032 1.65205779,17.3986683 1.68193493,17.5600472 C1.73173017,17.8323742 1.71181207,18.1047012 1.72177112,18.3770282 C1.72177112,18.4980624 1.74168922,18.6190966 1.74168922,18.750217 C1.74168922,18.911596 1.73173017,19.0628887 1.72177112,19.2242677 C1.71181207,19.3251295 1.71181207,19.4360776 1.76160731,19.5268532 C1.78152541,19.567198 1.78152541,19.6176289 1.78152541,19.6579736 C1.78152541,19.9303006 1.79148445,20.2026276 1.79148445,20.4749546 C1.79148445,20.9187467 1.79148445,21.3524526 1.67197588,21.7861586 C1.65205779,21.8567619 1.66201683,21.9273651 1.65205779,21.9979684 C1.61222159,22.2904678 1.52259017,22.5627948 1.42299969,22.8452079 C1.40308159,22.8855527 1.3831635,22.9258974 1.3831635,22.9763283 C1.35328635,23.2284829 1.24373683,23.4604652 1.17402349,23.7025336 C1.1341873,23.8235678 1.11426921,23.9546882 1.11426921,24.0858086 C1.11426921,24.2371014 1.09435111,24.3883942 1.09435111,24.5497731 C1.09435111,24.600204 1.10431016,24.650635 1.11426921,24.7010659 C1.12422826,24.7918415 1.08439206,24.8221001 0.994760635,24.7817554 C0.964883492,24.7716692 0.935006349,24.7514968 0.905129205,24.7514968 C0.775661585,24.7716692 0.715907298,24.6909797 0.66611206,24.600204 C0.616316821,24.4993422 0.566521582,24.4085665 0.516726343,24.3077047 C0.447013009,24.1463257 0.427094914,23.9849468 0.447013009,23.8134817 C0.456972057,23.7428784 0.447013009,23.6722751 0.447013009,23.5915856 C0.437053962,23.4100343 0.437053962,23.2385691 0.417135866,23.0570178 C0.417135866,23.0065869 0.397217771,22.9359836 0.35738158,22.8956389 C0.17811872,22.6737428 0.0984463384,22.4215882 0.0486510997,22.1492612 C-0.0310212822,21.7458138 0.00881490875,21.3423664 0.0187739565,20.9389191 C0.0187739565,20.6867644 0.0884872907,20.4346098 0.158200625,20.1925414 C0.217954911,20.0009039 0.257791102,19.7991802 0.327504436,19.6075427 C0.407176818,19.3957328 0.4868492,19.183923 0.616316821,18.9922855 C0.656153012,18.9418545 0.676071107,18.8813374 0.695989203,18.8208203 C0.725866346,18.7401308 0.745784442,18.6493552 0.775661585,18.5686657 C0.785620632,18.5484933 0.79557968,18.528321 0.785620632,18.5081486 C0.745784442,18.366942 0.805538728,18.2257354 0.825456823,18.094615 C0.895170158,17.7415986 0.855333967,17.3784959 0.865293014,17.0254795 C0.875252062,16.8540143 0.88521111,16.6825492 0.865293014,16.5211702 C0.805538728,15.9664301 0.855333967,15.4116899 0.835415871,14.867036 C0.825456823,14.483761 0.805538728,14.100486 0.775661585,13.7172109 C0.755743489,13.3843669 0.745784442,13.0515228 0.745784442,12.7186787 C0.745784442,12.5371274 0.705948251,12.3656622 0.686030155,12.1841109 C0.66611206,12.0025596 0.656153012,11.8210083 0.646193964,11.6293708 C0.636234916,11.5083365 0.626275869,11.3873023 0.626275869,11.2561819 C0.616316821,11.0342859 0.616316821,10.8123898 0.616316821,10.5804076 C0.616316821,10.2979944 0.636234916,10.0256674 0.646193964,9.74325425 C0.646193964,9.66256477 0.636234916,9.57178911 0.626275869,9.49109963 C0.626275869,9.45075489 0.616316821,9.40032397 0.616316821,9.35997923 C0.646193964,9.08765225 0.656153012,8.81532527 0.715907298,8.54299829 C0.755743489,8.36144697 0.725866346,8.17989565 0.775661585,7.99834432 C0.785620632,7.96808577 0.745784442,7.91765485 0.725866346,7.87731011 C0.676071107,7.78653445 0.66611206,7.76636208 0.755743489,7.70584497 C0.845374919,7.63524168 0.905129205,7.56463839 0.944965396,7.45369036 C0.97484254,7.35282851 1.04455587,7.27213904 1.09435111,7.18136338 C1.14414635,7.08050153 1.18398254,6.98972587 1.1541054,6.86869166 C1.1341873,6.81826074 1.1541054,6.76782981 1.20390064,6.73757126 C1.24373683,6.71739889 1.28357302,6.68714034 1.31345016,6.66696797 C1.37320445,6.62662323 1.43295874,6.58627849 1.41304064,6.48541665 C1.40308159,6.42489954 1.43295874,6.35429625 1.49271302,6.30386532 C1.53254921,6.27360677 1.5723854,6.24334822 1.61222159,6.22317585 C1.5723854,6.15257256 1.55246731,6.10214163 1.52259017,6.03153834 C1.60226255,5.9911936 1.67197588,5.9306765 1.75164826,5.90041794 C1.90103398,5.83990084 2.0305016,5.75921136 2.09025589,5.59783241 C2.11017398,5.5373153 2.16992827,5.48688438 2.20976446,5.42636727 C2.16992827,5.30533306 2.17988732,5.28516069 2.29939589,5.23472977 C2.41890446,5.18429884 2.53841303,5.13386792 2.64796256,5.083437 C2.77743018,5.01283371 2.84714351,4.90188568 2.88697971,4.76067909 C2.9268159,4.61947251 2.94673399,4.60938633 3.05628352,4.6900758 C3.14591495,4.75059291 3.25546447,4.74050672 3.33513685,4.65981725 C3.35505495,4.63964488 3.37497304,4.60938633 3.37497304,4.59930014 C3.46460447,4.58921396 3.53431781,4.58921396 3.60403114,4.57912777 C3.783294,4.5589554 3.96255686,4.53878303 4.14181972,4.50852448 C4.20157401,4.4984383 4.25136925,4.48835211 4.31112353,4.45809356 C4.40075496,4.41774882 4.49038639,4.40766264 4.58001782,4.44800737 C4.62981306,4.46817974 4.6796083,4.47826593 4.73936259,4.47826593 C5.10784735,4.48835211 5.47633212,4.4984383 5.84481688,4.50852448 C6.09379308,4.51861066 6.33281022,4.52869685 6.58178642,4.52869685 C6.8705988,4.52869685 7.16937023,4.4984383 7.45818262,4.4984383 C7.96609405,4.4984383 8.46404644,4.44800737 8.97195787,4.47826593 C9.19105692,4.4984383 9.42011502,4.45809356 9.64917312,4.43792119 C9.9778217,4.41774882 10.3064703,4.39757645 10.6251598,4.37740408 C10.7247503,4.3673179 10.8143817,4.34714553 10.9139722,4.33705934 C10.9737265,4.32697316 11.0334808,4.33705934 11.083276,4.33705934 C11.1330712,4.33705934 11.1729074,4.35723171 11.2227027,4.29671461 C11.2426208,4.26645605 11.3322522,4.27654224 11.3920065,4.27654224 C11.4218836,4.32697316 11.3920065,4.38749027 11.4716789,4.39757645 C11.700737,4.427835 11.919836,4.50852448 12.1488941,4.52869685 C12.5074198,4.5589554 12.8659455,4.61947251 13.2244713,4.63964488 C13.582997,4.66990343 13.9514817,4.66990343 14.3100075,4.67998962 C14.4793113,4.6900758 14.6486151,4.65981725 14.8079599,4.71024817 C15.0270589,4.77076528 15.2361989,4.76067909 15.4453389,4.74050672 C15.7341513,4.72033436 16.0229637,4.72033436 16.3117761,4.70016199 C16.6005884,4.67998962 16.8894008,4.64973106 17.1782132,4.61947251 C17.2479265,4.61947251 17.3076808,4.63964488 17.3773942,4.64973106 C17.4172304,4.65981725 17.4670256,4.66990343 17.5068618,4.66990343 C17.8753466,4.63964488 18.2438313,4.60938633 18.602357,4.58921396 C18.7915789,4.57912777 18.9808009,4.58921396 19.1700228,4.57912777 C19.2994904,4.56904159 19.438917,4.5589554 19.5683847,4.53878303 C19.9069923,4.48835211 20.255559,4.51861066 20.5941666,4.50852448 C20.8033066,4.4984383 21.0124466,4.51861066 21.2215866,4.51861066 C21.2614228,4.51861066 21.301259,4.51861066 21.3410952,4.50852448 C21.719539,4.41774882 22.1079418,4.37740408 22.5063038,4.33705934 C22.6756076,4.31688697 22.8349523,4.26645605 22.9942971,4.2361975 C23.2631914,4.19585276 23.5420447,4.16559421 23.810939,4.12524947 C24.1296285,4.08490473 24.4582771,4.1050771 24.7769666,4.09499091 C24.9363114,4.09499091 25.0856971,4.13533565 25.2450419,4.14542184 C25.3645505,4.15550802 25.484059,4.14542184 25.6135266,4.14542184 C25.7031581,4.14542184 25.8027486,4.16559421 25.89238,4.14542184 C26.0318067,4.12524947 26.1712333,4.17568039 26.31066,4.18576658 C26.4500867,4.18576658 26.5795543,4.21602513 26.7189809,4.22611131 C26.9082029,4.24628368 27.0974248,4.25636987 27.2866467,4.26645605 C27.4758686,4.27654224 27.6551314,4.26645605 27.8443533,4.27654224 C27.8941486,4.27654224 27.9539029,4.28662842 28.0136572,4.29671461 C28.1530838,4.16559421 28.3124286,4.05464618 28.5116095,4.02438762 C28.6211591,4.00421525 28.7207495,3.96387052 28.82034,3.92352578 C29.02948,3.8428363 29.2485791,3.78231919 29.4577191,3.7117159 C29.4975553,3.70162972 29.5274324,3.68145735 29.5672686,3.67137117 C29.8162448,3.5805955 30.065221,3.47973366 30.3141972,3.388958 C30.3739515,3.36878563 30.4436648,3.34861326 30.5034191,3.32844089 C30.5233372,3.31835471 30.5432553,3.30826852 30.5532143,3.30826852 C30.7424362,3.24775142 30.9316581,3.18723431 31.1308391,3.1267172 C31.2403886,3.08637246 31.3499381,3.05611391 31.4694467,3.01576917 C31.7084639,2.94516588 31.937522,2.88464877 32.1765391,2.81404548 C32.1964572,2.8039593 32.2263343,2.8039593 32.2462524,2.79387311 C32.3956382,2.71318364 32.564942,2.70309745 32.7342458,2.6728389 C32.8736725,2.65266653 33.0230582,2.60223561 33.1425667,2.52154613 C33.4512972,2.33999481 33.7500687,2.13827112 34.0587991,1.94663361 C34.0986353,1.92646124 34.1285125,1.88611651 34.1683487,1.87603032 C34.3974068,1.79534084 34.5467925,1.62387571 34.6961782,1.44232439 C34.6165058,1.33137636 34.5667106,1.21034214 34.6065468,1.07922174 C34.6165058,1.03887701 34.6264649,0.988446083 34.656342,0.958187529 C34.7559325,0.8472395 34.855523,0.726205285 34.9650725,0.645515809 C35.1542944,0.514395411 35.3634344,0.484136857 35.5924925,0.544653964 C35.6522468,0.564826333 35.7219601,0.554740149 35.7916734,0.564826333 C35.7916734,0.554740149 35.8016325,0.544653964 35.8016325,0.524481595 C35.7518372,0.494223041 35.7120011,0.453878303 35.6422877,0.403447381 C35.7717553,0.322757905 35.8912639,0.363102643 36.0107725,0.383275012 C36.0008134,0.353016458 36.0008134,0.332844089 35.9908544,0.31267172 C35.9808953,0.242068428 36.0107725,0.211809875 36.0705268,0.231982244 C36.1501992,0.262240798 36.1999944,0.231982244 36.2199125,0.141206583 C36.2697077,0.161378952 36.319503,0.181551321 36.3593392,0.191637506 C36.4190934,0.0806894762 36.4489706,0.0806894762 36.5485611,0.221896059 C36.5585201,0.181551321 36.5684792,0.141206583 36.5883973,0.11094803 C36.6282334,0.0302585536 36.6879877,0.020172369 36.7577011,0.0806894762 C36.7975373,0.121034214 36.8373735,0.161378952 36.8772096,0.20172369 C36.8871687,0.20172369 36.8971277,0.191637506 36.9070868,0.191637506 C36.9070868,0.151292768 36.8871687,0.121034214 36.8971277,0.0907756607 C36.9070868,0.0605171071 36.946923,0.0403447381 36.9867592,0 C37.0265954,0.0806894762 37.0564725,0.131120399 37.0863496,0.20172369 C37.1062677,0.161378952 37.1261858,0.131120399 37.1461039,0.100861845 C37.1958992,0.0302585536 37.2257763,0.020172369 37.2855306,0.0907756607 C37.3154077,0.121034214 37.3353258,0.151292768 37.365203,0.191637506 C37.3950801,0.141206583 37.4249573,0.100861845 37.4448754,0.0706032916 C37.6042201,0.100861845 37.4747525,0.292499351 37.6141792,0.322757905 C37.6241382,0.31267172 37.6340973,0.302585536 37.6340973,0.302585536 C37.6241382,0.262240798 37.574343,0.221896059 37.6340973,0.181551321 C37.6838925,0.151292768 37.7237287,0.181551321 37.7536058,0.221896059 C37.8133601,0.282413167 37.8631554,0.282413167 37.9428278,0.272326982 C38.1918039,0.252154613 38.4407801,0.262240798 38.6897563,0.272326982 C38.8690192,0.282413167 39.038323,0.302585536 39.2175859,0.31267172 C39.2972582,0.322757905 39.3868897,0.332844089 39.4665621,0.353016458 C39.5761116,0.383275012 39.6757021,0.403447381 39.7852516,0.403447381 C39.8549649,0.403447381 39.9147192,0.433705934 39.9844325,0.453878303 C40.0242687,0.463964488 40.0541459,0.484136857 40.0939821,0.494223041 C40.3230402,0.53456778 40.492344,0.665688178 40.6716068,0.806894762 C40.711443,0.837153315 40.7512792,0.867411869 40.7911154,0.887584238 C40.910624,0.93801516 40.9902964,1.02879082 41.0301325,1.14982504 C41.0600097,1.22042833 41.0898868,1.27085925 41.1795183,1.27085925 C41.3886583,1.26077306 41.5878392,1.32129017 41.7671021,1.41206583 C41.9463649,1.50284149 42.1256278,1.62387571 42.2849726,1.76508229 C42.2949316,1.77516848 42.3048907,1.78525466 42.3148497,1.80542703 C42.1355868,2.15844349 41.8666926,2.43077047 41.5280849,2.63249416 C41.1894773,2.84430403 40.8110335,2.90482114 40.4027125,2.90482114 C40.4325897,3.10654483 40.4525078,3.29818234 40.502303,3.47973366 C40.5321802,3.60076787 40.6218116,3.70162972 40.6915249,3.81257775 C40.8409106,4.06473236 40.9902964,4.31688697 41.1396821,4.56904159 C41.1695592,4.61947251 41.2093954,4.65981725 41.2492316,4.71024817 C41.3886583,4.88171331 41.4982078,5.07335081 41.6575526,5.2145574 C41.8268564,5.36585016 41.9164878,5.58774622 42.1057097,5.71886662 C42.1355868,5.73903899 42.1555049,5.76929755 42.165464,5.7995561 C42.1853821,5.86007321 42.2351773,5.89033176 42.2949316,5.9306765 C42.374604,5.98110742 42.4443173,6.0617969 42.5140307,6.13240019 C42.6634164,6.27360677 42.8426792,6.36438243 43.0219421,6.45515809 C43.1215326,6.50558902 43.2211231,6.56610612 43.2908364,6.65688178 C43.3107545,6.68714034 43.3505907,6.70731271 43.3804678,6.72748507 C43.4999764,6.82834692 43.5597307,6.95946732 43.5398126,7.12084627 C43.5298535,7.24188049 43.5099354,7.3629147 43.4999764,7.4940351 C43.4999764,7.50412128 43.4999764,7.51420747 43.4999764,7.52429365 C43.3207135,7.6856726 43.3904269,7.93782722 43.3007954,8.12946472 C43.2410411,8.27067131 43.1713278,8.38161934 43.0518192,8.48248118 C42.9223516,8.58334303 42.802843,8.65394632 42.6335392,8.67411869 C42.593703,8.67411869 42.5538669,8.70437724 42.5239897,8.72454961 C42.4343583,8.7951529 42.3347678,8.80523909 42.2252183,8.78506672 C41.9463649,8.74472198 41.6575526,8.72454961 41.3786992,8.6640325 C41.1496411,8.61360158 40.9305421,8.5329121 40.701484,8.46230881 C40.6716068,8.45222263 40.6317706,8.43205026 40.6018935,8.43205026 C40.4624668,8.45222263 40.3329992,8.42196407 40.1935725,8.41187789 C40.0043506,8.4017917 39.8051697,8.39170552 39.6159478,8.3412746 C39.4964392,8.31101604 39.3769306,8.31101604 39.247463,8.31101604 C39.0781592,8.31101604 38.9188144,8.32110223 38.7495106,8.33118841 C38.620043,8.3412746 38.4905754,8.35136078 38.3710668,8.35136078 C38.1320497,8.36144697 37.8930325,8.3412746 37.6540154,8.36144697 C37.5046296,8.38161934 37.365203,8.3412746 37.2257763,8.30092986 C37.1461039,8.28075749 37.0664315,8.27067131 36.9768001,8.26058512 C36.7975373,8.24041275 36.6680696,8.27067131 36.4888068,8.29084368 C36.3493801,8.31101604 36.1999944,8.35136078 36.0605677,8.3412746 C35.8813049,8.33118841 35.7617963,8.41187789 35.6721649,8.54299829 C35.5327382,8.74472198 35.3833525,8.95653185 35.2538849,9.16834173 C35.0547039,9.48101345 34.9053182,9.82394372 34.6762601,10.1164431 C34.6165058,10.1971325 34.5866287,10.3080806 34.5268744,10.3887701 C34.447202,10.5198905 34.3376525,10.6308385 34.2579801,10.7619589 C34.0488401,11.0746306 33.829741,11.3873023 33.620601,11.699974 C33.5807648,11.7604911 33.5409286,11.8310944 33.4512972,11.861353 C33.4214201,11.8714392 33.401502,11.9016977 33.3815839,11.9319563 C33.1724439,12.2345418 32.9732629,12.5472135 32.7442048,12.8397129 C32.6346553,12.9809195 32.5450239,13.1221261 32.4653515,13.2734188 C32.365761,13.4852287 32.2960477,13.7071248 32.2064163,13.9189346 C32.1964572,13.9491932 32.1864982,13.9794517 32.1765391,13.9996241 C32.0769486,14.1307445 32.0171943,14.2719511 31.9574401,14.4232439 C31.9275629,14.4938472 31.8976858,14.5644504 31.8777677,14.6451399 C31.8379315,14.9174669 31.738341,15.1595353 31.6387505,15.4116899 C31.6188324,15.4621209 31.5690372,15.4923794 31.5491191,15.5428103 C31.5092829,15.6234998 31.4794058,15.7142755 31.4395696,15.8050511 C31.3698562,15.9664301 31.310102,16.127809 31.2403886,16.289188 C31.2005524,16.3799637 31.1507572,16.4707393 31.110921,16.561515 C31.0312486,16.7329801 30.91174,16.8641005 30.7922315,17.0053071 C30.7225181,17.0960828 30.6528048,17.1868584 30.5830915,17.2776341 C30.3839105,17.5197025 30.1747705,17.7617709 29.9755896,18.0038394 C29.9457124,18.0441841 29.9257943,18.0845288 29.9058762,18.1349598 C29.8959172,18.1551321 29.8959172,18.1753045 29.8859581,18.1853907 C29.7564905,18.3871144 29.646941,18.5989243 29.4776372,18.7703894 C29.3382105,18.911596 29.1689067,19.0528026 28.9498076,19.1133197 C28.9199305,19.1234058 28.8800943,19.133492 28.8601762,19.1536644 C28.6908724,19.2847848 28.5116095,19.3049572 28.3124286,19.2343539 C28.2925105,19.2242677 28.2725924,19.2242677 28.2526743,19.2242677 C28.2327562,19.2646124 28.2028791,19.294871 28.182961,19.3352157 C28.1032886,19.5066809 28.0136572,19.6680598 27.9339848,19.839525 C27.9041076,19.8899559 27.8841895,19.950473 27.8742305,20.0109901 C27.8343943,20.2429723 27.7348038,20.4547822 27.6551314,20.6766783 C27.5655,20.9187467 27.4957867,21.1809875 27.5256638,21.4432283 C27.5256638,21.4634007 27.5356229,21.4936592 27.5256638,21.5138316 C27.4459914,21.7256415 27.4659095,21.9576237 27.4260733,22.1694336 C27.3961962,22.3509849 27.3663191,22.5426224 27.3264829,22.7241737 C27.2866467,22.9460698 27.14722,23.1175349 27.0376705,23.3091724 C27.0277114,23.3293448 26.9779162,23.339431 26.9679571,23.3495172 C26.9878752,23.5209823 27.0177524,23.6924474 27.0077933,23.8639126 C26.9978343,24.1564119 26.9779162,24.4489113 26.9579981,24.7414106 C26.9579981,24.7514968 26.9579981,24.761583 26.9579981,24.7716692 C27.0376705,25.0540823 26.9579981,25.3364955 26.9878752,25.6189087 C27.0077933,25.8508909 27.0376705,26.0828732 27.0476295,26.3148554 C27.0675476,26.6577857 27.1970152,26.9704574 27.2667286,27.3033015 C27.3065648,27.5151114 27.4360324,27.6664041 27.6451724,27.7470936 C27.8841895,27.8378693 28.1032886,27.9689897 28.2825514,28.1606272 C28.2925105,28.1707134 28.3024695,28.1807995 28.3223876,28.1908857 C28.5016505,28.2312305 28.5713638,28.4026956 28.7008314,28.5035575 C28.8302991,28.6044193 28.9099715,28.7557121 28.9896438,28.8969186 C29.0394391,28.9876943 29.0693162,29.07847 29.0095619,29.1793318 C28.9796848,29.1692456 28.9597667,29.1591594 28.9298895,29.1591594 C28.9000124,29.2095904 28.9298895,29.3205384 28.810381,29.2801937 C28.8004219,29.2801937 28.7705448,29.3104522 28.7705448,29.3306246 C28.7506267,29.4012279 28.6908724,29.4314864 28.6311181,29.4516588 C28.5116095,29.4920035 28.392101,29.5424345 28.2626333,29.4819174 C28.2526743,29.4819174 28.2327562,29.4819174 28.2227972,29.4819174 C27.973821,29.5525206 27.7447629,29.4819174 27.5057457,29.4516588 C27.3663191,29.4314864 27.2268924,29.4214002 27.0974248,29.4012279 C26.9779162,29.3709693 26.8683667,29.3306246 26.7488581,29.2902798 C26.6691857,29.2600213 26.6293495,29.1995042 26.6293495,29.1188147 C26.6193905,28.9675219 26.529759,28.8969186 26.4102505,28.8565739 C26.320619,28.8263154 26.2210286,28.8162292 26.1214381,28.8162292 C25.8625028,28.8162292 25.6035676,28.806143 25.3545914,28.7153673 C25.2948371,28.695195 25.2151647,28.6851088 25.1554105,28.695195 C25.0060247,28.7052811 24.84668,28.7052811 24.7072533,28.6548502 C24.6773762,28.644764 24.647499,28.644764 24.6176219,28.6346779 C24.4682362,28.6145055 24.3188504,28.5943331 24.1595057,28.5741607 C24.1595057,28.4934713 24.1595057,28.4329542 24.1595057,28.3623509 C24.1893828,28.3724371 24.21926,28.3825232 24.2590962,28.3926094 C24.2491371,28.2514028 24.1893828,28.150541 24.1395876,28.039593 C24.0798333,27.9084726 24.020079,27.7773522 24.01012,27.6361456 C24.01012,27.5453699 23.9503657,27.4848528 23.8906114,27.4848528 C23.7312666,27.4747666 23.7113485,27.3739048 23.7013895,27.2528706 C23.7013895,27.2528706 23.6914304,27.2427844 23.6914304,27.2326982 C23.59184,27.2528706 23.6416352,27.3436462 23.6217171,27.3940772 C23.5818809,27.4142495 23.5420447,27.4445081 23.4922495,27.4545943 C23.4524133,27.4646804 23.402618,27.4545943 23.3528228,27.4445081 C23.3129866,27.4344219 23.2731504,27.4142495 23.2333142,27.4041633 C23.1337238,27.383991 23.1138057,27.3739048 23.1138057,27.2730429 C23.1038466,27.1217502 23.1237647,26.9805436 23.193478,26.8292508 C23.2930685,26.5871824 23.3727409,26.3350278 23.4125771,26.072787 C23.4424542,25.8206324 23.4822904,25.5684778 23.5221266,25.3264093 C23.5221266,25.2961508 23.5420447,25.2658922 23.5520038,25.2255475 C23.5719219,25.1246856 23.59184,25.03391 23.601799,24.9330481 C23.6217171,24.8422725 23.6316761,24.7514968 23.6416352,24.650635 C23.6615533,24.3077047 23.6814714,23.9546882 23.7113485,23.611758 C23.7312666,23.4100343 23.7013895,23.2083106 23.6914304,23.0065869 C23.6814714,22.8855527 23.6615533,22.7746046 23.6515942,22.6535704 C23.6416352,22.52245 23.59184,22.411502 23.5320857,22.3106402 C23.4324952,22.1694336 23.4424542,22.0080546 23.4524133,21.8567619 C23.4822904,21.5440901 23.4822904,21.2314184 23.4225361,20.9187467 C23.4125771,20.8884881 23.4125771,20.8582296 23.4225361,20.827971 C23.4922495,20.5758164 23.4723314,20.3236618 23.4623723,20.0715072 C23.4524133,19.9000421 23.4424542,19.7285769 23.4424542,19.5470256 C23.4424542,19.4360776 23.4424542,19.3251295 23.4524133,19.2242677 C23.4623723,19.1435782 23.4424542,19.0830611 23.402618,19.0124578 C23.3727409,18.9721131 23.3428638,18.9216822 23.3229457,18.8712512 C23.2532323,18.6997861 23.183519,18.528321 23.1138057,18.3467696 C22.9345428,18.3770282 22.7353619,18.3972006 22.5461399,18.4274591 C22.346959,18.4577177 22.147778,18.4879762 21.9485971,18.528321 C21.8988018,18.5384071 21.8490066,18.5585795 21.7992114,18.5686657 C21.6896618,18.5888381 21.5900714,18.6090104 21.4805218,18.6190966 C21.4307266,18.6291828 21.3809314,18.6190966 21.3311361,18.6190966 C21.3211771,18.6594414 21.301259,18.6896999 21.2912999,18.7300447 C21.092119,18.639269 20.9427333,18.7703894 20.7833885,18.8309065 C20.6041256,18.8914236 20.4348218,18.9721131 20.255559,19.0528026 C20.2057637,19.0729749 20.1460094,19.1032335 20.0962142,19.133492 C20.0364599,19.1738368 19.9866647,19.1940091 19.9169513,19.183923 C19.8771151,19.1738368 19.837279,19.183923 19.7974428,19.2040953 C19.5982618,19.3150434 19.3692037,19.3150434 19.1700228,19.405819 C19.0903504,19.4461638 18.9708418,19.4360776 18.8812104,19.4259914 C18.6919885,19.405819 18.5027666,19.3856466 18.3135447,19.4259914 C18.1442408,19.4663361 17.964978,19.4663361 17.7857151,19.4865085 C17.6662066,19.5066809 17.546698,19.5571118 17.4271894,19.5873703 C17.3873532,19.5974565 17.3275989,19.6176289 17.2977218,19.5974565 C17.1981313,19.5470256 17.0985408,19.5772842 16.9989504,19.5974565 C16.9591142,19.6075427 16.9093189,19.6176289 16.8794418,19.5974565 C16.7599332,19.5369394 16.6404246,19.5873703 16.5209161,19.6075427 C16.4810799,19.6176289 16.4312846,19.6277151 16.3914484,19.6378013 C16.3316942,19.6579736 16.2619808,19.6579736 16.2121856,19.6882322 C16.1524313,19.7386631 16.1026361,19.7386631 16.0428818,19.6983184 C15.9831275,19.6579736 15.9134141,19.6478874 15.8536599,19.6983184 C15.7939056,19.7386631 15.7341513,19.7285769 15.674397,19.7084046 C15.475216,19.6277151 15.266076,19.5571118 15.056936,19.4865085 C14.9971818,19.4663361 14.9374275,19.4562499 14.8577551,19.4663361 C14.7780827,19.4764223 14.6884513,19.4259914 14.6087789,19.3957328 C14.5490246,19.3755605 14.4892703,19.3453019 14.4394751,19.3049572 C14.2502532,19.1536644 14.011236,19.1032335 13.802096,19.0023716 C13.5730379,18.8914236 13.3141027,18.8611651 13.0750855,18.7804756 C13.0153313,18.7603032 12.9456179,18.7603032 12.8858636,18.7703894 C12.8061913,18.7905618 12.7265189,18.7804756 12.6568055,18.750217 C12.5771332,18.7199585 12.5074198,18.7401308 12.4476655,18.8107341 C12.2783617,19.0023716 12.1090579,19.183923 11.9297951,19.3654743 C11.8401636,19.4562499 11.7405731,19.5369394 11.6409827,19.6277151 C11.4617198,19.789094 11.292416,19.9403868 11.1031941,20.0916796 C10.9737265,20.2026276 10.8342998,20.3034894 10.6849141,20.4043513 C10.6052417,20.4547822 10.5156103,20.5052131 10.4160198,20.5253855 C10.2965112,20.5556441 10.1969207,20.6161612 10.1371665,20.717023 C10.047535,20.8481434 9.93798551,20.9792638 9.92802646,21.1507289 C9.90810836,21.3927974 9.84835408,21.6348658 9.77864074,21.866848 C9.76868169,21.8769342 9.75872265,21.8870204 9.7487636,21.8870204 C9.5197055,21.9374513 9.55954169,21.9677099 9.42011502,21.7155553 C9.35040169,21.5844349 9.28068835,21.4432283 9.25081121,21.2919355 C9.25081121,21.2717632 9.23089312,21.2515908 9.21097502,21.2213322 C9.18109788,21.2717632 9.15122073,21.3020217 9.13130264,21.3423664 C9.05163026,21.4533145 8.93212168,21.4634007 8.8524493,21.3524526 C8.75285882,21.211246 8.69310454,21.0599533 8.65326835,20.8884881 C8.6433093,20.8582296 8.6433093,20.827971 8.63335025,20.7977125 C8.42421025,20.8178848 8.21507025,20.8481434 7.9959712,20.8683158 C7.9959712,20.9389191 7.98601215,20.98935 7.9959712,21.0498671 C8.03580739,21.3827112 8.08560263,21.7155553 8.12543882,22.0483994 C8.15531596,22.2501231 8.15531596,22.4417606 8.19515215,22.6434842 C8.23498834,22.8552941 8.30470168,23.0570178 8.36445596,23.2587415 C8.4341693,23.4705514 8.51384168,23.6823613 8.58355501,23.9042573 C8.6233912,24.0252915 8.6433093,24.1564119 8.66322739,24.2875323 C8.70306359,24.5699455 8.76281787,24.8523587 8.86240835,25.1246856 C8.89228549,25.1952889 8.89228549,25.2658922 8.90224454,25.3465817 C8.91220359,25.4272712 8.93212168,25.4978745 9.02175311,25.5483054 C8.94208073,25.6592534 8.98191692,25.7601153 9.04167121,25.8408047 C9.19105692,26.0425284 9.35040169,26.2240798 9.4997874,26.4157173 C9.5197055,26.4358896 9.5396236,26.456062 9.56950074,26.4762344 C9.73880455,26.56701 9.90810836,26.6577857 10.0674531,26.7485613 C10.1272074,26.7889061 10.1770027,26.839337 10.2367569,26.8897679 C10.2666341,26.9099403 10.2965112,26.9401989 10.3263884,26.9603712 C10.3463065,26.9704574 10.3861427,26.9805436 10.3861427,27.000716 C10.4160198,27.1620949 10.5853236,27.2024396 10.6550369,27.33356 C10.7048322,27.4243357 10.7845046,27.5050252 10.874136,27.5756285 C11.0235217,27.6966627 11.0733169,27.8580416 11.093235,28.0496791 C11.083276,28.0496791 11.0733169,28.0597653 11.0633579,28.0597653 C11.0533989,28.0597653 11.0434398,28.0597653 11.0334808,28.0597653 C11.0334808,28.1707134 11.0235217,28.1707134 10.9239312,28.1807995 C10.6550369,28.2009719 10.3861427,28.2312305 10.1172484,28.2514028 C10.0276169,28.261489 9.93798551,28.261489 9.84835408,28.2413167 C9.65913217,28.2009719 9.46991026,28.1908857 9.28068835,28.2009719 C9.22093407,28.2009719 9.17113883,28.1807995 9.12134359,28.150541 C9.02175311,28.0799377 8.90224454,28.039593 8.79269502,27.989162 C8.68314549,27.9286449 8.60347311,27.8479555 8.56363692,27.7168351 C8.52380073,27.5857147 8.45408739,27.4646804 8.36445596,27.3638186 C8.30470168,27.2932153 8.2051112,27.2629568 8.11547977,27.222612 C8.06568453,27.2024396 8.00593024,27.1822673 7.95613501,27.1620949 C7.87646262,27.2125258 7.80674929,27.2831291 7.71711786,27.33356 C7.60756833,27.3940772 7.48805976,27.33356 7.44822357,27.2125258 C7.42830548,27.1318364 7.40838738,27.0612331 7.38846928,26.9805436 C7.38846928,26.9603712 7.37851024,26.9401989 7.37851024,26.9200265 C7.44822357,26.6678719 7.34863309,26.4157173 7.33867405,26.1635626 C7.328715,25.961839 7.28887881,25.7601153 7.26896071,25.5583916 C7.26896071,25.5079607 7.27891976,25.4676159 7.27891976,25.4373574 C7.24904262,25.3566679 7.22912452,25.2860646 7.19924738,25.2154613 C7.10961595,24.9330481 7.05982071,24.650635 6.95027118,24.378308 C6.86063975,24.1664981 6.80088547,23.9345159 6.73117213,23.7126198 C6.6415407,23.4402928 6.56186832,23.178052 6.46227784,22.905725 C6.39256451,22.7241737 6.28301498,22.5627948 6.14358832,22.4014158 C5.98424355,22.2097783 5.89461212,21.9777961 5.80498069,21.7458138 C5.72530831,21.5541763 5.64563593,21.3625388 5.5560045,21.1809875 C5.48629117,21.0397809 5.43649593,20.8884881 5.46637307,20.7271092 C5.50620926,20.5052131 5.51616831,20.2833171 5.60579974,20.0815934 C5.63567688,20.0009039 5.64563593,19.9101282 5.66555403,19.8092664 C5.50620926,19.9000421 5.39665974,20.0210763 5.27715116,20.1320243 C5.14768354,20.2530585 5.01821592,20.3740927 4.89870735,20.5052131 C4.83895306,20.5758164 4.77919878,20.6665921 4.74932163,20.7573677 C4.71944449,20.8481434 4.69952639,20.9288329 4.62981306,20.98935 C4.60989496,21.0095224 4.58997687,21.0296947 4.58001782,21.0599533 C4.52026353,21.2515908 4.38083687,21.4028836 4.29120544,21.5743487 C4.26132829,21.6348658 4.2214921,21.7054691 4.2214921,21.7659862 C4.21153306,21.9777961 4.09202448,22.1593474 4.02231115,22.3610711 C4.00239305,22.411502 3.95259781,22.4417606 3.93267972,22.4921915 C3.87292543,22.6132257 3.81317115,22.7342599 3.74345781,22.8653803 C3.54427686,23.2688277 3.47456352,23.7025336 3.43472733,24.1362396 C3.41480924,24.3480494 3.37497304,24.5598593 3.33513685,24.7716692 C3.33513685,24.7918415 3.32517781,24.8120139 3.32517781,24.8321863 C3.37497304,25.1246856 3.30525971,25.4070988 3.31521876,25.689512 C3.32517781,25.8811495 3.35505495,26.0627008 3.37497304,26.2543383 C3.40485019,26.5165791 3.43472733,26.7889061 3.46460447,27.0511469 C3.47456352,27.1721811 3.48452257,27.2932153 3.5940721,27.383991 C3.65382638,27.4344219 3.67374448,27.5352837 3.69366257,27.605887 C3.72353972,27.6865765 3.76337591,27.7269212 3.85300734,27.7269212 C3.92272067,27.7269212 3.992434,27.767266 4.05218829,27.8076107 C4.19161496,27.9084726 4.30116448,28.039593 4.35095972,28.2110581 C4.37087782,28.2715752 4.42067306,28.3119199 4.4704683,28.3522647 C4.52026353,28.4026956 4.58001782,28.4430403 4.62981306,28.4833851 C4.64973116,28.4934713 4.66964925,28.5035575 4.66964925,28.5237298 C4.72940354,28.7456259 4.93854354,28.8364015 5.03813402,29.0179529 C5.05805211,29.0582976 5.08792926,29.0885562 5.0978883,29.1389871 C5.12776545,29.2902798 5.08792926,29.3306246 4.93854354,29.3407108 C4.8887483,29.5222621 4.73936259,29.5323483 4.59993592,29.5323483 C4.43063211,29.5424345 4.27128734,29.572693 4.10198353,29.5424345 C3.94263877,29.5222621 3.783294,29.5525206 3.62394924,29.5626068 C3.50444067,29.572693 3.39489114,29.572693 3.27538257,29.5323483 C3.20566923,29.5121759 3.12599685,29.5020897 3.05628352,29.5020897 C2.9268159,29.4920035 2.81726637,29.4516588 2.70771685,29.3810555 C2.68779875,29.3709693 2.65792161,29.350797 2.65792161,29.3306246 C2.63800351,29.2196766 2.53841303,29.1995042 2.4686997,29.1389871 C2.38902732,29.0683838 2.31931398,28.9876943 2.24960065,28.9070048 C2.2396416,28.8868325 2.2396416,28.8565739 2.2396416,28.8364015 C2.22968255,28.7557121 2.20976446,28.6851088 2.19980541,28.6044193 C2.18984636,28.5640746 2.15001017,28.5237298 2.19980541,28.4833851 C2.20976446,28.4732989 2.19980541,28.4430403 2.19980541,28.4329542 C2.12013303,28.3018338 2.11017398,28.1606272 2.09025589,28.0194206 C2.09025589,27.989162 2.06037874,27.9387311 2.04046065,27.9185588 C1.96078827,27.8580416 1.87115684,27.8076107 1.78152541,27.7470936 C1.78152541,27.7470936 1.77156636,27.7470936 1.77156636,27.7571798 C1.72177112,27.7975245 1.71181207,27.8983864 1.63213969,27.8681278 C1.55246731,27.8378693 1.48275397,27.7975245 1.44291778,27.7168351 C1.43295874,27.6966627 1.42299969,27.6764903 1.41304064,27.6664041 C1.32340921,27.5756285 1.30349111,27.4646804 1.29353207,27.3436462 C1.27361397,27.0410607 1.33336826,26.7485613 1.42299969,26.4661482 C1.43295874,26.4258034 1.45287683,26.3854587 1.46283588,26.3350278 C1.51263112,26.1232179 1.54250826,25.9013218 1.60226255,25.6995982 C1.70185302,25.3768403 1.71181207,25.03391 1.79148445,24.7111521 C1.83132065,24.5396869 1.85123874,24.3581356 1.86119779,24.1765843 C1.96078827,24.0656363 1.97074731,23.9042573 2.07033779,23.7630507 Z M25.3745095,22.1795198 C25.3545914,22.2198645 25.3446324,22.2400369 25.3446324,22.2602092 C25.3247143,22.3509849 25.3247143,22.4417606 25.2948371,22.5325362 C25.2350828,22.6939152 25.1952466,22.8653803 25.2052057,23.0368454 C25.2052057,23.0771902 25.1952466,23.1276211 25.1852876,23.1679658 C25.1653695,23.339431 25.0956562,23.5108961 25.1255333,23.6924474 C25.1454514,23.8134817 25.1255333,23.9345159 25.0956562,24.0555501 C25.0856971,24.0958948 25.065779,24.1261534 25.065779,24.1664981 C25.0159838,24.4287389 25.0757381,24.7010659 24.9960657,24.9633067 C24.9960657,24.9633067 24.9960657,24.9733929 24.9960657,24.9733929 C24.9960657,25.0641685 24.9960657,25.1650304 24.9960657,25.255806 C25.0060247,25.4978745 25.0159838,25.7298567 25.0359019,25.9719251 C25.05582,26.1938212 25.1852876,26.3854587 25.26496,26.5972686 C25.2948371,26.6880442 25.3446324,26.7889061 25.3944276,26.9099403 C25.4243047,26.6880442 25.4541819,26.4964067 25.484059,26.3047692 C25.5139362,26.1030455 25.5338543,25.8912357 25.5637314,25.689512 C25.5836495,25.4978745 25.6234857,25.3163231 25.6334447,25.1246856 C25.6533628,24.8826172 25.6533628,24.650635 25.6533628,24.4085665 C25.6533628,24.0757224 25.6434038,23.7327922 25.6334447,23.3999481 C25.6334447,23.3797757 25.6234857,23.3495172 25.6135266,23.3293448 C25.5238952,23.1477935 25.4741,22.956156 25.484059,22.7544323 C25.4741,22.572881 25.4442228,22.3913296 25.3745095,22.1795198 Z M39.1279544,1.61378952 C39.1877087,1.62387571 39.237504,1.5633586 39.2574221,1.65413426 C39.2574221,1.67430663 39.3072173,1.68439281 39.3370944,1.694479 C39.3769306,1.694479 39.4167668,1.694479 39.456603,1.68439281 C39.8151287,1.61378952 40.1736544,1.50284149 40.5222211,1.37172109 C40.502303,1.36163491 40.4823849,1.34146254 40.4624668,1.34146254 C40.4325897,1.33137636 40.4027125,1.33137636 40.3728354,1.33137636 C40.3329992,1.33137636 40.293163,1.33137636 40.2533268,1.32129017 C39.9047602,1.19016977 39.5362754,1.18008359 39.1677906,1.23051451 C39.0881182,1.2406007 39.0184049,1.26077306 38.9188144,1.28094543 C39.0084459,1.38180728 39.0682001,1.49275531 39.1279544,1.61378952 Z" id="Shape"></path>
            </g>
        </g>
    </g>
</svg>