
<svg width="100px" height="100px" viewBox="0 0 100 100" version="1.1" xmlns="http://www.w3.org/2000/svg" xmlns:xlink="http://www.w3.org/1999/xlink">
    <!-- Generator: Sketch 51.3 (57544) - http://www.bohemiancoding.com/sketch -->
    <desc>Created with Sketch.</desc>
    <defs></defs>
    <g id="Page-1" stroke="none" stroke-width="1" fill="none" fill-rule="evenodd">
        <g id="Google-Chrome---Modal,-Searching" transform="translate(-596.000000, -438.000000)" fill="#DDE1E5">
            <g id="Group-2" transform="translate(554.000000, 438.000000)">
                <g id="loupe" transform="translate(42.000000, 0.000000)">
                    <path d="M65.4450135,0.161725067 C46.4800539,0.161725067 31.0509434,15.5908356 31.0509434,34.5557951 C31.0509434,42.3587601 33.6652291,49.5614555 38.061186,55.338814 L31.0940701,62.3070081 C31.0498652,62.3512129 31.0088949,62.3975741 30.9708895,62.4447439 C30.4002695,62.3269542 29.8148248,62.2636119 29.2188679,62.2636119 C26.9436658,62.2636119 24.8040431,63.1504043 23.1954178,64.7590296 L2.49433962,85.4601078 C0.885444744,87.0690027 0,89.2072776 0,91.4827493 C0,93.7579515 0.885444744,95.896496 2.49433962,97.5043127 C4.10431267,99.1140162 6.2425876,99.9994609 8.5180593,99.9994609 C10.7921833,99.9994609 12.9318059,99.1140162 14.5404313,97.5043127 L35.2415094,76.8043127 C36.8504043,75.1954178 37.7358491,73.0568733 37.7358491,70.7816712 C37.7358491,70.1857143 37.6738544,69.5991914 37.554717,69.0285714 C37.6032345,68.990566 37.6495957,68.9506739 37.6938005,68.906469 L44.6606469,61.9393531 C50.4380054,66.33531 57.6420485,68.9485175 65.4450135,68.9485175 C84.4097035,68.9485175 99.838814,53.5204852 99.838814,34.5557951 C99.838814,15.5908356 84.4097035,0.161725067 65.4450135,0.161725067 Z M12.2536388,95.2172507 C11.2555256,96.2153639 9.92884097,96.7649596 8.5180593,96.7649596 C7.10700809,96.7649596 5.78032345,96.2153639 4.78113208,95.2172507 C3.78409704,94.2202156 3.23450135,92.893531 3.23450135,91.4827493 C3.23450135,90.0708895 3.78409704,88.745283 4.78221024,87.7469003 L23.4765499,69.0528302 L30.9477089,76.5231806 L12.2536388,95.2172507 Z M33.2242588,74.2245283 L25.7781671,66.7795148 C26.76469,65.9309973 27.9902965,65.5013477 29.2188679,65.5013477 C30.5719677,65.5013477 31.9247978,66.0172507 32.954717,67.0471698 C33.9528302,68.0442049 34.5013477,69.3708895 34.5013477,70.7816712 C34.5013477,72.0598383 34.0495957,73.267655 33.2242588,74.2245283 Z M36.1681941,65.8571429 C35.8921833,65.4708895 35.5849057,65.1024259 35.2415094,64.7601078 C34.8983827,64.4169811 34.5296496,64.1083558 34.1423181,63.8326146 L40.1458221,57.828841 C40.7924528,58.532345 41.4684636,59.2083558 42.1716981,59.854717 L36.1681941,65.8571429 Z M65.4450135,65.7140162 C48.2638814,65.7140162 34.2854447,51.7369272 34.2854447,34.5557951 C34.2854447,17.3743935 48.2638814,3.39622642 65.4450135,3.39622642 C82.6261456,3.39622642 96.6043127,17.3743935 96.6043127,34.5557951 C96.6043127,51.7369272 82.6261456,65.7140162 65.4450135,65.7140162 Z" id="Fill-1"></path>
                    <path d="M65.4450135,7.06253369 C50.2854447,7.06253369 37.951752,19.3948787 37.951752,34.5557951 C37.951752,49.7153639 50.2854447,62.0490566 65.4450135,62.0490566 C80.6045822,62.0490566 92.9382749,49.7153639 92.9382749,34.5557951 C92.9382749,19.3948787 80.6045822,7.06253369 65.4450135,7.06253369 Z M65.4450135,58.8145553 C52.0690027,58.8145553 41.1862534,47.9318059 41.1862534,34.5557951 C41.1862534,21.1787062 52.0690027,10.297035 65.4450135,10.297035 C78.8210243,10.297035 89.7037736,21.1787062 89.7037736,34.5557951 C89.7037736,47.9318059 78.8210243,58.8145553 65.4450135,58.8145553 Z" id="Fill-2"></path>
                    <path d="M76.6752022,17.2913747 C75.9266846,16.8037736 74.9253369,17.0142857 74.4366577,17.7630728 C73.9493261,18.5115903 74.1609164,19.512938 74.9083558,20.0005391 C79.851752,23.222372 82.802965,28.6636119 82.802965,34.5557951 C82.802965,38.5808625 81.3943396,42.5040431 78.8355795,45.6016173 C78.2671159,46.2902965 78.3638814,47.309434 79.0525606,47.8778976 C79.354717,48.1274933 79.7191375,48.2485175 80.0822102,48.2485175 C80.5477089,48.2485175 81.009973,48.0485175 81.3299191,47.661186 C84.3654987,43.9854447 86.0374663,39.3304582 86.0374663,34.5557951 C86.0374663,27.5654987 82.5377358,21.1123989 76.6752022,17.2913747 Z" id="Fill-3"></path>
                    <path d="M69.187062,14.3021563 C67.9603774,14.0768194 66.7021563,13.9619946 65.4450135,13.9619946 C64.5520216,13.9619946 63.8277628,14.6865229 63.8277628,15.5792453 C63.8277628,16.4722372 64.5520216,17.196496 65.4450135,17.196496 C66.5061995,17.196496 67.5687332,17.293531 68.6026954,17.4830189 C68.7016173,17.5008086 68.7994609,17.5102426 68.8973046,17.5102426 C69.6617251,17.5102426 70.3420485,16.9638814 70.4862534,16.1846361 C70.6474394,15.3067385 70.0660377,14.4633423 69.187062,14.3021563 Z" id="Fill-4"></path>
                </g>
            </g>
        </g>
    </g>
</svg>